<?xml version="1.0" encoding="UTF-8"?>
<svg width="13px" height="13px" viewBox="0 0 13 13" version="1.1" xmlns="http://www.w3.org/2000/svg" xmlns:xlink="http://www.w3.org/1999/xlink">
    <title>上市</title>
    <g id="页面-1" stroke="none" stroke-width="1" fill="none" fill-rule="evenodd">
        <g id="产业投资-活跃区域" transform="translate(-33.000000, -196.000000)">
            <g id="编组" transform="translate(0.000000, 170.000000)">
                <g id="上市" transform="translate(33.000000, 26.000000)">
                    <circle id="椭圆形" fill="#E6F1FF" cx="5" cy="7" r="4"></circle>
                    <path d="M6.5,0 C2.90968966,0 0,2.90968966 0,6.5 C0,10.0903103 2.90968966,13 6.5,13 C10.0903103,13 13,10.0903103 13,6.5 C13,2.90968966 10.0903103,0 6.5,0 Z M8.66811788,1.365595 C9.33132396,1.64567984 9.92777406,2.04766689 10.4386024,2.55994642 C10.6562849,2.77762894 10.8551016,3.01272605 11.03215,3.25943291 C10.5721143,3.57144452 9.99017638,3.83411476 9.32697031,4.02857781 C9.19636079,3.30587185 9.00770261,2.63976334 8.76680063,2.06363027 C8.63909355,1.75742353 8.49832552,1.48314356 8.34739897,1.24224157 C8.45624023,1.27997321 8.56363027,1.3220585 8.66811788,1.365595 Z M8.61297165,6.5 C8.61297165,7.10660862 8.57378879,7.69870507 8.50122795,8.25887475 C7.86414378,8.14422862 7.18932797,8.08327752 6.49854878,8.08327752 C5.8600134,8.08327752 5.22583166,8.13552132 4.61922304,8.2371065 C4.5466622,7.68274168 4.51038178,7.09935253 4.51038178,6.5 C4.51038178,6.04286671 4.53215003,5.59589194 4.57423532,5.16342934 C5.20696584,5.27662425 5.877428,5.33612413 6.56240232,5.33612413 C7.23866935,5.33612413 7.91203394,5.27662425 8.55056932,5.16342934 C8.59120339,5.59589194 8.61297165,6.04286671 8.61297165,6.5 L8.61297165,6.5 Z M6.56095111,0.943290913 C7.01953561,0.943290913 7.52455905,1.49620451 7.91203394,2.42208082 C8.13261889,2.95177495 8.30531369,3.56854209 8.42431346,4.24190668 C7.82786336,4.35074793 7.19658406,4.40734539 6.56095111,4.40734539 C5.92386693,4.40734539 5.29403885,4.35074793 4.69758875,4.24190668 C4.81658852,3.56854209 4.98928332,2.95177495 5.20986827,2.42208082 C5.59589194,1.49620451 6.10091538,0.943290913 6.56095111,0.943290913 Z M2.55994642,2.55994642 C3.07222594,2.04766689 3.66722483,1.64567984 4.3304309,1.365595 C4.4857111,1.30029024 4.64389373,1.24079035 4.80352757,1.18999777 C4.63954008,1.44250949 4.48861353,1.73420406 4.35074793,2.06217906 C4.10984595,2.63831212 3.92118777,3.30442063 3.79057825,4.02712659 C3.78041974,4.02422416 3.77171244,4.02132172 3.76155392,4.01841929 C3.07077473,3.81234651 2.46997098,3.53226167 2.0055816,3.20138424 C2.17392275,2.97789685 2.35822728,2.76166555 2.55994642,2.55994642 Z M1.67180174,9.28198259 C1.55860683,9.0846171 1.45557044,8.87999553 1.36704622,8.66811788 C1.07680286,7.98169234 0.930229962,7.2517303 0.930229962,6.5 C0.930229962,5.74681849 1.07680286,5.01830766 1.36704622,4.33188212 C1.41493637,4.21868721 1.46718017,4.10694351 1.52232641,3.99810225 C2.10716678,4.40444296 2.83858004,4.72951552 3.66141996,4.95735655 C3.60772494,5.45657513 3.58015182,5.97320831 3.58015182,6.5 C3.58015182,7.16465729 3.62368832,7.81480241 3.7078589,8.43302076 C3.63384684,8.45188658 3.561286,8.47220362 3.49017638,8.49397187 C2.80375084,8.69278857 2.18553248,8.96126367 1.67180174,9.28198259 Z M4.33188212,11.634405 C3.66867604,11.3543202 3.07222594,10.9523331 2.56139763,10.4400536 C2.43514177,10.3137977 2.316142,10.181737 2.20294709,10.0467738 C2.63686091,9.78120116 3.16220138,9.55626256 3.74849297,9.38647019 C3.78767582,9.37486046 3.82830989,9.36470194 3.86749274,9.35309221 C3.99229739,9.92922527 4.15483367,10.4647243 4.35219915,10.9378209 C4.49006475,11.2657959 4.64099129,11.5574905 4.80497879,11.8100022 C4.64534494,11.7577584 4.48716231,11.6997098 4.33188212,11.634405 L4.33188212,11.634405 Z M7.91203394,10.5779192 C7.52455905,11.5037955 7.01953561,12.0567091 6.56095111,12.0567091 C6.1023666,12.0567091 5.59734316,11.5037955 5.20986827,10.5779192 C5.03281983,10.1541639 4.88624693,9.67381112 4.77450324,9.15282429 C5.32886805,9.05994642 5.91080598,9.01205626 6.49709757,9.01205626 C7.12692565,9.01205626 7.75094887,9.0672025 8.34159411,9.17314133 C8.23130163,9.68687207 8.08617995,10.1599687 7.91203394,10.5779192 L7.91203394,10.5779192 Z M10.4400536,10.4400536 C9.92777406,10.9523331 9.33277517,11.3543202 8.6695691,11.634405 C8.56363027,11.6793927 8.45769145,11.7200268 8.35030141,11.7577584 C8.50122795,11.5168564 8.64199598,11.2425765 8.76970306,10.9363697 C8.96416611,10.4719804 9.12379996,9.94809109 9.24715338,9.38501898 C9.26311677,9.38937263 9.27908015,9.39372628 9.29504354,9.39953115 C9.86537173,9.56932351 10.3747488,9.78990846 10.7970529,10.0482251 C10.683858,10.1831882 10.5648582,10.3137977 10.4400536,10.4400536 L10.4400536,10.4400536 Z M11.326747,9.2834338 C10.7825407,8.94384907 10.1309444,8.66666667 9.40823845,8.46494753 C9.49531145,7.83802188 9.54029917,7.17626702 9.54029917,6.49854878 C9.54029917,5.97175709 9.51272605,5.45512391 9.46048225,4.95590534 C9.49676267,4.94574682 9.53304309,4.9355883 9.56787229,4.92542978 C10.3079929,4.7106497 10.9711989,4.41315026 11.5081491,4.05760214 C11.5516856,4.14757758 11.5937709,4.23755303 11.6329538,4.3304309 C11.9231971,5.01685644 12.06977,5.74681849 12.06977,6.49854878 C12.06977,7.2517303 11.9231971,7.98024113 11.6329538,8.66666667 C11.5444296,8.87999553 11.4413932,9.08606832 11.326747,9.2834338 L11.326747,9.2834338 Z" id="形状" fill="#333333" fill-rule="nonzero"></path>
                </g>
            </g>
        </g>
    </g>
</svg>