<?xml version="1.0" encoding="UTF-8"?>
<svg width="17px" height="18px" viewBox="0 0 17 18" version="1.1" xmlns="http://www.w3.org/2000/svg" xmlns:xlink="http://www.w3.org/1999/xlink">
    <title>上市企业营业收入增速</title>
    <g id="页面-1" stroke="none" stroke-width="1" fill="none" fill-rule="evenodd">
        <g id="城市排名" transform="translate(-31.000000, -533.000000)" fill="#282828" fill-rule="nonzero" stroke="#282828" stroke-width="0.6">
            <g id="背景处理" transform="translate(0.000000, 86.000000)">
                <g id="编组" transform="translate(0.000000, 85.000000)">
                    <g id="编组-8" transform="translate(0.000000, 52.000000)">
                        <g id="上市企业营业收入增速" transform="translate(31.818182, 310.818182)">
                            <path d="M13.6943976,0 L1.85059426,0 C0.830222851,0 0,0.834196337 0,1.8594513 L0,6.32213443 C0,6.42076587 0.0389945459,6.51535761 0.108405295,6.58510057 C0.177816044,6.65484352 0.271957224,6.69402471 0.370118849,6.69402471 L2.96095083,6.69402471 L2.96095083,15.9912812 C2.96095919,16.1201638 3.02737928,16.2398537 3.13649236,16.3076093 C3.24560545,16.3753649 3.38185354,16.3815253 3.49658222,16.3238906 L4.82843178,15.6548368 L6.52473276,16.3365581 C6.61294253,16.3719953 6.71133625,16.3719953 6.79954601,16.3365581 L8.51273365,15.64798 L10.2259213,16.3365581 C10.3141311,16.3719953 10.4125248,16.3719953 10.5007346,16.3365581 L12.2402932,15.6374044 L15.0855819,16.3520148 C15.1149036,16.3596179 15.1450536,16.3636364 15.1753357,16.3636364 C15.2734973,16.3636364 15.3676385,16.3244552 15.4370492,16.2547122 C15.50646,16.1849693 15.5454545,16.0903775 15.5454545,15.9917461 L15.5454545,1.8594513 C15.5449919,0.834196337 14.714769,0 13.6943976,0 Z M0.740237698,5.95024418 L0.740237698,1.8594513 C0.740237698,1.24328334 1.23736127,0.743780528 1.85059426,0.743780528 C2.46382725,0.743780528 2.96095083,1.24328334 2.96095083,1.8594513 L2.96095083,5.95024418 L0.740237698,5.95024418 Z M14.8047542,15.5147968 L12.303676,14.887232 C12.2282205,14.8682737 12.1487385,14.8736819 12.0765156,14.9026887 L10.3633279,15.5908019 L8.65014028,14.9022239 C8.56193051,14.8667867 8.46353679,14.8667867 8.37532703,14.9022239 L6.66213939,15.5908019 L4.94895173,14.9022239 C4.85081052,14.8627927 4.74057352,14.8674026 4.64603258,14.9148914 L3.70118854,15.3895163 L3.70118854,1.8594513 C3.70160145,1.45690432 3.57133244,1.0652061 3.33014439,0.743780511 L13.6943976,0.743780511 C14.30734,0.744484989 14.8040531,1.24357538 14.8047542,1.8594513 L14.8047542,15.5147968 Z M8.1426148,8.18158575 L8.1426148,9.66914679 L10.7334468,9.66914679 C10.8316084,9.66914678 10.9257496,9.70832797 10.9951603,9.77807092 C11.0645711,9.84781388 11.1035656,9.94240563 11.1035656,10.0410371 L11.1035656,12.2723786 C11.1035656,12.3710101 11.0645711,12.4656018 10.9951603,12.5353448 C10.9257496,12.6050877 10.8316084,12.6442689 10.7334468,12.6442689 L9.62309022,12.6442689 L9.62309022,13.0161591 C9.62309021,13.2215484 9.45738236,13.3880494 9.25297137,13.3880494 C9.04856038,13.3880494 8.88285253,13.2215484 8.88285252,13.0161591 L8.88285252,12.6442689 L7.77249595,12.6442689 C7.56808497,12.6442689 7.40237709,12.4777679 7.40237709,12.2723786 C7.40237709,12.0669893 7.56808497,11.9004884 7.77249595,11.9004884 L10.3633279,11.9004884 L10.3633279,10.4129273 L7.77249595,10.4129273 C7.67433433,10.4129273 7.58019315,10.3737461 7.51078239,10.3040032 C7.44137164,10.2342602 7.40237709,10.1396685 7.40237709,10.0410371 L7.40237709,7.80969549 C7.40237709,7.71106406 7.44137164,7.61647231 7.51078239,7.54672935 C7.58019314,7.4769864 7.67433433,7.43780521 7.77249595,7.43780522 L8.88285252,7.43780522 L8.88285252,7.06591496 C8.88285252,6.86052565 9.04856037,6.69402471 9.25297137,6.69402471 C9.45738236,6.69402471 9.62309022,6.86052565 9.62309022,7.06591496 L9.62309022,7.43780522 L10.7334468,7.43780522 C10.9378578,7.43780522 11.1035656,7.60430616 11.1035656,7.80969548 C11.1035656,8.0150848 10.9378578,8.18158575 10.7334468,8.18158575 L8.1426148,8.18158575 Z M5.18166396,2.60323182 C5.18166396,2.50460039 5.22065851,2.41000865 5.29006927,2.3402657 C5.35948002,2.27052274 5.4536212,2.23134157 5.55178282,2.23134157 L7.03225824,2.23134157 C7.23666923,2.23134157 7.40237709,2.39784251 7.40237709,2.60323182 C7.40237709,2.80862114 7.23666923,2.97512208 7.03225824,2.97512208 L5.55178282,2.97512208 C5.4536212,2.97512208 5.35948002,2.9359409 5.29006927,2.86619795 C5.22065851,2.796455 5.18166396,2.70186326 5.18166396,2.60323182 L5.18166396,2.60323182 Z M13.3242788,4.83457339 C13.3242788,4.93320483 13.2852842,5.02779657 13.2158735,5.09753952 C13.1464627,5.16728247 13.0523215,5.20646365 12.9541599,5.20646365 L5.55178282,5.20646365 C5.34737183,5.20646365 5.18166398,5.03996271 5.18166398,4.83457339 C5.18166398,4.62918408 5.34737183,4.46268314 5.55178282,4.46268314 L12.9541599,4.46268314 C13.0523215,4.46268314 13.1464627,4.50186431 13.2158735,4.57160727 C13.2852842,4.64135022 13.3242788,4.73594196 13.3242788,4.83457339 L13.3242788,4.83457339 Z M13.3242788,2.60323182 C13.3242788,2.70186326 13.2852842,2.796455 13.2158735,2.86619795 C13.1464627,2.9359409 13.0523215,2.97512208 12.9541599,2.97512208 L8.51273365,2.97512208 C8.30832266,2.97512208 8.1426148,2.80862114 8.1426148,2.60323182 C8.1426148,2.39784251 8.30832266,2.23134157 8.51273365,2.23134157 L12.9541599,2.23134157 C13.0523215,2.23134157 13.1464627,2.27052274 13.2158735,2.3402657 C13.2852842,2.41000865 13.3242788,2.50460039 13.3242788,2.60323182 L13.3242788,2.60323182 Z" id="形状"></path>
                        </g>
                    </g>
                </g>
            </g>
        </g>
    </g>
</svg>