<?xml version="1.0" encoding="UTF-8"?>
<svg width="98px" height="54px" viewBox="0 0 98 54" version="1.1" xmlns="http://www.w3.org/2000/svg" xmlns:xlink="http://www.w3.org/1999/xlink">
    <title>院校icon</title>
    <defs>
        <linearGradient x1="41.7585581%" y1="-21.0184974%" x2="54.0416771%" y2="100%" id="linearGradient-1">
            <stop stop-color="#F4F6FF" stop-opacity="0.130545236" offset="0%"></stop>
            <stop stop-color="#E5EAFF" offset="100%"></stop>
        </linearGradient>
        <linearGradient x1="45.7876826%" y1="0%" x2="54.1219459%" y2="100%" id="linearGradient-2">
            <stop stop-color="#EBEFFF" offset="0%"></stop>
            <stop stop-color="#ABC1FF" offset="100%"></stop>
        </linearGradient>
        <linearGradient x1="30.2255099%" y1="17.5584875%" x2="69.3502462%" y2="82.4415125%" id="linearGradient-3">
            <stop stop-color="#EBEFFF" offset="0%"></stop>
            <stop stop-color="#ABC1FF" offset="100%"></stop>
        </linearGradient>
        <linearGradient x1="11.7076547%" y1="3.51814048%" x2="100%" y2="100.652422%" id="linearGradient-4">
            <stop stop-color="#DEE4FF" offset="0%"></stop>
            <stop stop-color="#2C60FD" offset="100%"></stop>
        </linearGradient>
    </defs>
    <g id="页面-1" stroke="none" stroke-width="1" fill="none" fill-rule="evenodd">
        <g id="产业投资-热点产业详情" transform="translate(-136.000000, -132.000000)">
            <g id="编组-2" transform="translate(136.776794, 132.000000)">
                <path d="M14.988416,53.7962775 C4.62750306,43.7250978 0.759524739,37.5076037 3.38448103,35.1437952 C7.32191546,31.5980824 12.0874322,35.6780642 12.0874322,31.5980824 C12.0874322,27.5181005 0,23.5831417 0,16.5736942 C0.16242709,12.2948207 5.80196748,18.5073349 7.49420799,16.5736942 C9.18644851,14.6400535 1.50147233,6.72291841 7.49420799,3.882033 C12.4093656,2.57818544 12.535031,16.5736942 14.988416,16.5736942 C17.441801,16.5736942 17.8608733,13.189823 20.5343716,16.5736942 C23.2078699,19.9575654 17.2416473,28.9399768 17.2416473,31.5980824 C17.2416473,34.2561879 20.1749921,30.887261 22.2791287,32.5717244 C23.6818864,33.6947 22.5409749,40.7695511 18.8563943,53.7962775 L14.988416,53.7962775 Z" id="路径-26" fill="url(#linearGradient-1)"></path>
                <rect id="矩形" fill="url(#linearGradient-2)" x="18" y="15" width="18" height="39" rx="1"></rect>
                <rect id="矩形" fill="url(#linearGradient-3)" x="74" y="36" width="22.3463687" height="18" rx="1"></rect>
                <rect id="矩形" fill="#EEF2FF" x="36.2936693" y="26.3783784" width="24.0043251" height="24" rx="1"></rect>
                <path d="M87.8743987,0.183714238 C87.8743987,0.110248329 87.8743987,0.0367322165 87.9521739,0 C87.9521739,0 87.9910614,0 87.9910614,0.0367326384 C88.0299488,0.110198126 87.9910614,0.146930343 87.9132862,0.183714238 L87.8743987,0.183714238 L87.8743987,0.183714238 Z M85.5786778,30.1592612 C85.5786778,29.8654003 85.5046271,29.7184187 85.2454504,29.60822 C83.09788,28.5796061 80.9502617,27.5143581 78.80267,26.5224733 C78.506468,26.3754917 78.4324172,26.2286124 78.4324172,25.8979687 L78.4324172,8.33873944 C78.4324172,7.97141305 78.3213415,7.89789694 77.9880625,7.89789694 C76.2848,7.93462958 74.5815321,7.89789694 72.8782695,7.93462958 C72.5080167,7.93462958 72.4339149,7.82443188 72.4709913,7.49378708 C72.5080166,6.20809622 72.4709913,4.92235263 72.4709913,3.6366565 C72.4709913,3.3427956 72.3969405,3.30606286 72.1007385,3.30606286 C71.1750532,3.30606286 70.286395,3.3427955 69.360715,3.30606286 C68.9904622,3.30606286 68.879335,3.37952835 68.879335,3.74690535 L68.879335,21.7101806 C68.6941575,21.6367151 68.5831329,21.563199 68.4720573,21.5264667 C59.2521999,17.0447788 49.9583523,12.5632068 40.6644516,8.08152417 C40.4422998,7.97132646 40.2200969,7.93454257 39.9979977,7.93454257 L32.4443546,7.93454257 C32.1111272,7.93454257 32,8.00800806 32,8.37538506 L32,53.5959414 C32,53.926535 32.0740508,54 32.4072782,54 L85.2084707,54 C85.5416982,54 85.6157484,53.8898023 85.6157484,53.5959414 C85.5787231,45.771414 85.5787231,37.9469393 85.5787232,30.15922 L85.5786778,30.1592612 Z M42.3306707,49.3715578 L38.3316872,49.3715578 C38.0354852,49.3715578 37.924409,49.2980697 37.924409,49.0042088 L37.924409,31.3715741 C37.924409,31.0409805 38.0354846,30.967515 38.3316872,30.967515 C39.6647012,31.0042477 40.960635,30.967515 42.293649,30.967515 C42.6268764,30.967515 42.7009272,31.0409805 42.7009272,31.3715741 L42.7009272,49.0409642 C42.7379525,49.2980929 42.6268764,49.3715578 42.3306744,49.3715578 L42.3306707,49.3715578 Z M49.8842606,49.0041582 C49.8842606,49.298019 49.8102098,49.3347518 49.5140078,49.3347518 L45.4409703,49.3347518 C45.1447683,49.3347518 45.0707175,49.2245541 45.0707175,48.9674254 L45.0707175,31.334738 C45.0707175,31.0041444 45.1817931,30.9306794 45.4779957,30.9306794 C46.8110097,30.9674121 48.1439705,30.9306794 49.4769792,30.9306794 C49.7361558,30.9306794 49.847232,30.9674121 49.847232,31.2980058 C49.8842606,37.1755507 49.8842606,43.0899037 49.8842606,49.004204 L49.8842606,49.0041582 Z M56.6603157,49.3715352 L52.6613323,49.3715352 C52.3281048,49.3715352 52.2169776,49.2980697 52.2169776,48.967476 L52.2169776,31.408194 C52.2169776,31.0776004 52.2540029,30.9673515 52.6242559,30.9673515 C53.9572698,31.0040842 55.3272523,30.9673515 56.6602663,30.9673515 C56.919443,30.9673515 56.9934938,31.0040842 56.9934938,31.2979452 L56.9934938,49.0776015 C57.030519,49.2979974 56.919443,49.3715352 56.6602663,49.3715352 L56.6603157,49.3715352 Z" id="形状" fill="url(#linearGradient-4)"></path>
            </g>
        </g>
    </g>
</svg>