<?xml version="1.0" encoding="UTF-8"?>
<svg width="15px" height="15px" viewBox="0 0 15 15" version="1.1" xmlns="http://www.w3.org/2000/svg" xmlns:xlink="http://www.w3.org/1999/xlink">
    <title>产业用地</title>
    <g id="页面-1" stroke="none" stroke-width="1" fill="none" fill-rule="evenodd">
        <g id="产业投资-活跃区域" transform="translate(-229.000000, -195.000000)">
            <g id="编组" transform="translate(0.000000, 170.000000)">
                <g id="产业用地" transform="translate(230.000000, 26.000000)">
                    <rect id="矩形" fill="#E6F1FF" opacity="0.5" x="1" y="7" width="6" height="6" rx="1"></rect>
                    <path d="M12.85375,6.44714286 C12.75625,6.38428571 12.6425,6.38428571 12.545,6.41571429 L8.6125,8.11285714 L8.6125,6.71428571 C8.6125,6.60428571 8.56375,6.51 8.46625,6.44714286 C8.36875,6.38428571 8.255,6.38428571 8.1575,6.41571429 L4.225,8.11285714 L4.225,3.1 C4.225,2.92714286 4.07875,2.78571429 3.9,2.78571429 L0.325,2.78571429 C0.14625,2.78571429 0,2.92714286 0,3.1 L0,12.6857143 C0,12.8585714 0.14625,13 0.325,13 L12.675,13 C12.85375,13 13,12.8585714 13,12.6857143 L13,6.71428571 C13,6.60428571 12.95125,6.51 12.85375,6.44714286 Z M12.35,12.3714286 L0.65,12.3714286 L0.65,3.41428571 L3.575,3.41428571 L3.575,8.6 C3.575,8.71 3.62375,8.80428571 3.72125,8.86714286 C3.81875,8.93 3.9325,8.93 4.03,8.89857143 L7.9625,7.20142857 L7.9625,8.6 C7.9625,8.71 8.01125,8.80428571 8.10875,8.86714286 C8.20625,8.93 8.32,8.93 8.4175,8.89857143 L12.35,7.20142857 L12.35,12.3714286 L12.35,12.3714286 Z" id="形状" stroke="#333333" stroke-width="0.4" fill="#333333" fill-rule="nonzero"></path>
                    <path d="M12.6913604,0 L9.91360442,0 C9.74385266,0 9.60496486,0.156696429 9.60496486,0.348214286 L9.60496486,3.95223214 L6.5031373,2.12410714 C6.41054543,2.071875 6.28708961,2.071875 6.19449774,2.14151786 C6.10190587,2.21116071 6.04017796,2.315625 6.04017796,2.4375 L6.04017796,3.95223214 L6.02474598,3.95223214 C5.8704262,3.86517857 5.68524247,3.91741071 5.60808258,4.09151786 C5.53092269,4.265625 5.57721862,4.47455357 5.7315384,4.56160714 L6.19449774,4.84017857 C6.28708961,4.89241071 6.41054543,4.89241071 6.5031373,4.84017857 C6.59572916,4.77053571 6.65745708,4.66607143 6.65745708,4.54419643 L6.65745708,3.02946429 L9.75928464,4.85758929 C9.85187651,4.90982143 9.97533233,4.90982143 10.0679242,4.84017857 C10.1605161,4.77053571 10.222244,4.66607143 10.222244,4.54419643 L10.222244,0.696428571 L12.3827209,0.696428571 L12.3827209,5.22321429 C12.3827209,5.41473214 12.5216087,5.57142857 12.6913604,5.57142857 C12.8611122,5.57142857 13,5.41473214 13,5.22321429 L13,0.348214286 C13,0.156696429 12.8611122,0 12.6913604,0 Z" id="路径" stroke="#333333" stroke-width="0.4" fill="#333333" fill-rule="nonzero"></path>
                </g>
            </g>
        </g>
    </g>
</svg>