<?xml version="1.0" encoding="UTF-8"?>
<svg width="25px" height="25px" viewBox="0 0 25 25" version="1.1" xmlns="http://www.w3.org/2000/svg" xmlns:xlink="http://www.w3.org/1999/xlink">
    <title>产业投资-选中</title>
    <g id="页面-1" stroke="none" stroke-width="1" fill="none" fill-rule="evenodd">
        <g id="产业投资-活跃区域" transform="translate(-222.000000, -102.000000)">
            <g id="编组-3" transform="translate(0.000000, 86.000000)">
                <g id="产业投资-选中" transform="translate(206.000000, 17.000000)">
                    <g transform="translate(16.294649, 0.000000)">
                        <ellipse id="椭圆形" fill="#E6F1FF" cx="12.4010029" cy="8.34782609" rx="7.82608696" ry="8"></ellipse>
                        <path d="M4.54747351e-13,13.52657 L13.5024522,13.52657 C14.8189394,14.560836 15.3608148,15.4180591 15.1280782,16.0982396 C14.8953416,16.77842 14.5844157,17.2139826 14.1953005,17.4049274 L16.4782976,17.4049274 L20.524138,16.7526656 C21.335553,17.0287402 21.4515883,17.454494 20.872244,18.0299271 C20.1786956,18.3398827 18.0361204,19.1437373 14.4445184,20.4414908 C13.9306623,20.6257268 13.2494905,20.6257268 12.4010029,20.4414908 C11.5525153,20.2572549 8.52266481,19.4534003 3.31145137,18.0299271 L4.54747351e-13,18.0299271 L4.54747351e-13,13.52657 Z" id="路径-93" fill="#E6F1FF"></path>
                        <g id="收入比icon">
                            <path d="M0,13.52657 L13.1425653,13.52657 C14.5347808,13.5788348 15.2308885,14.2708014 15.2308885,15.6024698 C15.2308885,17.5999724 12.3119031,17.5711402 11.4932539,17.5711402 C10.9474878,17.5711402 12.7066737,17.5711402 16.7708118,17.5711402 L21.6396937,16.1485089 C22.4706847,16.021831 23.0846466,16.3336356 23.4815795,17.0839227 C24.0769789,18.2093532 23.1375732,19.1965625 21.9374932,19.578193 C21.1374398,19.8326133 18.7766451,20.7229512 14.8551092,22.2492069 C14.0670753,22.6279764 12.9464569,22.6279764 11.4932539,22.2492069 C10.040051,21.8704374 7.2093923,21.1454992 3.00127793,20.0743924 L0,20.0743924" id="路径-103" stroke="#4768C8" stroke-width="1.8"></path>
                            <path d="M18.4524731,17.1185102 C21.1573522,15.5169875 22.9710512,12.5693336 22.9710512,9.19806763 C22.9710512,4.11811515 18.852936,0 13.7729836,0 C8.69303109,0 4.57491593,4.11811515 4.57491593,9.19806763 C4.57491593,10.764425 4.96644217,12.2393364 5.65696758,13.530275" id="路径" stroke="#4768C8" stroke-width="1.8" stroke-linecap="round"></path>
                            <path d="M12.7002173,11.35133 L11.0355767,11.35133 C10.880273,11.3397087 10.7609427,11.2748691 10.6775864,11.1568114 C10.5942302,11.038754 10.5439033,10.9075992 10.5266068,10.7633471 C10.5439036,10.6192801 10.5942302,10.5011301 10.6775864,10.4088972 C10.7609427,10.3166644 10.880273,10.2647377 11.0355767,10.2531164 L12.7002173,10.2531164 L12.7002173,9.70829839 L11.0355767,9.69972076 C10.880273,9.68809945 10.7609427,9.63331329 10.6775864,9.53536226 C10.5942302,9.43741124 10.5439033,9.31345062 10.5266068,9.16348041 C10.5439036,9.01941337 10.5942302,8.9012634 10.6775864,8.80903051 C10.7609427,8.71679762 10.880273,8.66487095 11.0355767,8.65324965 L12.2776398,8.65324965 L11.121693,6.6126033 C11.0640981,6.54342885 11.0094476,6.45553147 10.9577407,6.34891029 C10.906034,6.24228911 10.8830329,6.12552264 10.8887372,5.99861086 C10.9174426,5.83720352 10.9749456,5.70604876 11.061246,5.60514658 C11.1475461,5.5042444 11.3085545,5.43940459 11.5442705,5.41062802 C11.6822776,5.42224933 11.8059318,5.46984135 11.9152334,5.55340409 C12.024535,5.63696683 12.1136875,5.72772371 12.182691,5.82567473 L13.4937577,8.2296253 L14.934275,5.80851947 C15.0032785,5.71056844 15.0924311,5.62405455 15.2017326,5.54897692 C15.3110342,5.47389956 15.4346885,5.42778328 15.5726955,5.41062802 C15.6589956,5.41634644 15.7380279,5.42787554 15.8097916,5.44521525 C15.8815552,5.46255495 15.9448547,5.49142378 15.9996892,5.53182166 C16.054524,5.57221954 16.1005266,5.62986521 16.1376962,5.70475779 C16.1748661,5.77965064 16.2021915,5.87769392 16.2196724,5.99888756 C16.2196724,6.16601304 16.1621695,6.32456088 16.0471636,6.4745311 L14.7101516,8.65352634 L15.9781601,8.65352634 C16.1277597,8.66514765 16.2456177,8.71707458 16.3317341,8.80930721 C16.4178505,8.9015401 16.466705,9.01969007 16.4782976,9.1637571 C16.466705,9.31372732 16.4163784,9.44054743 16.3273179,9.54421659 C16.2382577,9.64788575 16.1189273,9.70553142 15.9693277,9.71715272 L14.3217999,9.72573036 L14.3217999,10.2531164 L15.9778841,10.2531164 C16.1274837,10.2647377 16.2453417,10.3223831 16.3314581,10.4260525 C16.4175745,10.5297217 16.466429,10.6536823 16.4780216,10.7979344 C16.466429,10.9479046 16.4175745,11.0732487 16.3314581,11.1739667 C16.2453417,11.2746847 16.1274837,11.3308543 15.9778841,11.3424757 L14.3217999,11.333898 L14.3217999,12.2505979 C14.2987987,12.7405372 14.0314331,12.9855072 13.519703,12.9855072 C13.2666905,12.9855072 13.0697079,12.9250027 12.928757,12.8039935 C12.7878061,12.682984 12.7116262,12.4985191 12.7002173,12.2505979 L12.7002173,11.35133 L12.7002173,11.35133 Z" id="路径" fill="#4768C8" fill-rule="nonzero"></path>
                        </g>
                    </g>
                </g>
            </g>
        </g>
    </g>
</svg>