<?xml version="1.0" encoding="UTF-8"?>
<svg width="15px" height="23px" viewBox="0 0 15 23" version="1.1" xmlns="http://www.w3.org/2000/svg" xmlns:xlink="http://www.w3.org/1999/xlink">
    <title>全社会用电量增速</title>
    <g id="页面-1" stroke="none" stroke-width="1" fill="none" fill-rule="evenodd">
        <g id="城市排名" transform="translate(-33.000000, -469.000000)" fill="#282828" fill-rule="nonzero">
            <g id="背景处理" transform="translate(0.000000, 86.000000)">
                <g id="编组" transform="translate(0.000000, 85.000000)">
                    <g id="编组-8" transform="translate(0.000000, 52.000000)">
                        <g id="全社会用电量增速" transform="translate(33.000000, 246.000000)">
                            <path d="M6.48847132,8.22380618 L6.48847128,8.22380625 C6.68484398,7.90911638 7.11974305,7.80130694 7.45984622,7.98300699 C7.75571746,8.14107567 7.88827717,8.4714945 7.77554461,8.76990771 L7.72150187,8.87781224 L5.88547084,11.8399182 L9.5518553,11.8399182 L9.55185528,11.8399182 C9.94457901,11.8398092 10.2630384,12.1342963 10.2631579,12.4976748 C10.2631579,12.5744879 10.2486707,12.6507114 10.2202792,12.7228926 L10.1690808,12.8255335 L7.72293569,16.7732605 L7.72293567,16.7732605 C7.53021313,17.0898754 7.09658596,17.2019847 6.7544023,17.023662 C6.45191461,16.8660264 6.31666054,16.52933 6.43444294,16.2271593 L6.48848568,16.1192548 L8.32309453,13.155838 L4.65815447,13.155838 L4.65815449,13.155838 C4.26543075,13.1556835 3.94720189,12.8609819 3.94736849,12.4976034 C3.94736849,12.4214207 3.96173746,12.3458228 3.98973138,12.2741788 L4.04092977,12.1715379 L6.48849708,8.22381091 L6.48847132,8.22380618 Z" id="形状"></path>
                            <path d="M12.9545456,3.15789474 L2.04545465,3.15789474 L2.04545456,3.15789474 C0.915780368,3.15789474 0,4.06678952 0,5.18796989 C0,5.18796989 0,5.18796989 0,5.18796989 L0,20.0751877 L0,20.075188 C0,21.1963684 0.915780368,22.1052632 2.04545456,22.1052632 L12.9545455,22.1052632 L12.9545454,22.1052632 C14.0842196,22.1052632 15,21.1963684 15,20.075188 L15,5.1879702 L15,5.1879702 C15,4.06678982 14.0842196,3.15789474 12.9545454,3.15789474 L12.9545456,3.15789474 Z M2.04545465,4.51127807 L12.9545456,4.51127807 L12.9545456,4.51127807 C13.3311037,4.51127807 13.6363638,4.8142431 13.6363638,5.18796989 C13.6363638,5.18796989 13.6363638,5.18796989 13.6363638,5.18796989 L13.6363638,20.0751877 L13.6363638,20.0751877 C13.6363638,20.4489145 13.3311037,20.7518794 12.9545456,20.7518794 C12.9545456,20.7518794 12.9545456,20.7518794 12.9545456,20.7518794 L2.04545462,20.7518794 L2.04545459,20.7518794 C1.66889652,20.7518794 1.3636364,20.4489145 1.3636364,20.0751877 C1.3636364,20.0751877 1.3636364,20.0751877 1.3636364,20.0751877 L1.3636364,5.18796989 L1.3636364,5.18796979 C1.3636364,4.814243 1.66889652,4.51127807 2.04545459,4.51127807 C2.04545459,4.51127807 2.04545459,4.51127807 2.04545459,4.51127807 L2.04545465,4.51127807 Z" id="形状"></path>
                            <path d="M11.0434409,0.543478443 L11.0526316,0.662777743 L11.0526316,3.28337535 C11.0532093,3.64942476 10.7965558,3.94669956 10.4793769,3.94736957 C10.2012662,3.94795388 9.96275558,3.71848528 9.91321074,3.40266575 L9.9040219,3.28336645 L9.9040219,1.3242146 L5.09481898,1.3242146 L5.09596759,3.28337422 C5.09606336,3.60347577 4.89789435,3.87791853 4.625046,3.93554103 L4.52167149,3.94614541 C4.2442922,3.94625213 4.00648596,3.71755184 3.95655751,3.40267082 L3.94736842,3.28337152 L3.94736842,0.662773911 C3.94727286,0.342672433 4.1454419,0.0682296738 4.41829025,0.0106045908 L4.52166476,0 L10.4783292,0 C10.7557062,-0.000102856493 10.9935125,0.228597416 11.0434409,0.543478443 Z" id="路径"></path>
                        </g>
                    </g>
                </g>
            </g>
        </g>
    </g>
</svg>