<?xml version="1.0" encoding="UTF-8"?>
<svg width="10px" height="10px" viewBox="0 0 10 10" version="1.1" xmlns="http://www.w3.org/2000/svg" xmlns:xlink="http://www.w3.org/1999/xlink">
    <title>形状</title>
    <g id="页面-1" stroke="none" stroke-width="1" fill="none" fill-rule="evenodd">
        <g id="产业投资-活跃区域详情" transform="translate(-26.000000, -529.000000)" fill="#AFC4FF" fill-rule="nonzero">
            <g id="编组" transform="translate(10.000000, 318.000000)">
                <path d="M25.6139014,213.286671 C25.7972349,213.286671 25.9439018,213.140004 25.9439018,212.962781 L25.9439018,211.404446 C25.9439018,211.221113 25.7972349,211.074446 25.6139014,211.074446 L24.0555662,211.074446 C23.8722327,211.074446 23.7255658,211.221113 23.7255658,211.404446 L23.7255658,211.758891 L18.305004,211.758891 L18.305004,211.404446 C18.305004,211.221113 18.1583371,211.074446 17.9750036,211.074446 L16.4166684,211.074446 C16.2333349,211.074446 16.0866681,211.221113 16.0866681,211.404446 L16.0866681,212.95667 C16.0866681,213.140004 16.2333349,213.286671 16.4166684,213.286671 L16.7955578,213.286671 L16.7955578,218.682788 L16.4166684,218.682788 C16.2333349,218.682788 16.0866681,218.829455 16.0866681,219.012788 L16.0866681,220.571124 C16.0866681,220.754457 16.2333349,220.901124 16.4166684,220.901124 L17.9750036,220.901124 C18.152226,220.901124 18.2988929,220.754457 18.305004,220.571124 L18.305004,220.180012 L23.7255658,220.180012 L23.7255658,220.571124 C23.7255658,220.754457 23.8722327,220.901124 24.0555662,220.901124 L25.6139014,220.901124 C25.7972349,220.901124 25.9439018,220.754457 25.9439018,220.571124 L25.9439018,219.012788 C25.9439018,218.829455 25.7972349,218.682788 25.6139014,218.682788 L25.2166787,218.682788 L25.2166787,213.286671 L25.6139014,213.286671 Z M24.3855666,211.728335 L25.283901,211.728335 L25.283901,212.62667 L24.3855666,212.62667 L24.3855666,211.728335 Z M16.7466688,211.728335 L17.6450032,211.728335 L17.6450032,212.62667 L16.7466688,212.62667 L16.7466688,211.728335 Z M17.6450032,220.241123 L16.7466688,220.241123 L16.7466688,219.342789 L17.6450032,219.342789 L17.6450032,220.241123 Z M22.1916752,217.576676 C22.1916752,217.735565 22.0633417,217.870009 21.8983415,217.870009 C21.7333413,217.870009 21.6050078,217.741676 21.6050078,217.576676 L21.6050078,215.590562 C21.6050078,215.456118 21.6050078,215.230006 21.4827855,215.107784 C21.3972298,215.022228 21.250563,214.97945 21.0488961,214.97945 L20.8472292,214.97945 L20.8472292,217.582787 C20.8472292,217.741676 20.7188957,217.87612 20.5538955,217.87612 C20.3950064,217.87612 20.2605618,217.747787 20.2605618,217.582787 L20.2605618,214.97945 L19.4233386,214.97945 L19.4233386,217.582787 C19.4233386,217.741676 19.2950051,217.87612 19.1300049,217.87612 C18.9650047,217.87612 18.8366713,217.747787 18.8366713,217.582787 L18.8366713,214.686117 C18.8366713,214.527228 18.9650047,214.392783 19.1300049,214.392783 L21.0488961,214.392783 C21.4155632,214.392783 21.6966746,214.496672 21.8983415,214.692228 C22.1916752,214.991673 22.1916752,215.401118 22.1916752,215.596673 L22.1916752,217.576676 L22.1916752,217.576676 Z M23.4811211,214.563894 C23.6094546,214.570005 23.7072325,214.673894 23.7072325,214.796117 C23.7072325,214.918339 23.6033435,215.022228 23.4811211,215.022228 L22.6377868,215.022228 C22.5766756,215.022228 22.5155644,214.997784 22.4727866,214.948895 C22.4300088,214.906117 22.4055643,214.845006 22.4116754,214.783895 C22.4116754,214.728895 22.4483421,214.215561 22.8333426,214.044449 C23.0166761,213.965005 23.218343,213.861116 23.2611209,213.726671 C23.2733431,213.683893 23.267232,213.616671 23.2305653,213.561671 C23.2122319,213.531115 23.1694541,213.476115 23.1022318,213.457782 C22.9800094,213.433337 22.8638982,213.50056 22.7966759,213.641115 C22.7416758,213.757227 22.6072312,213.800005 22.49112,213.745004 C22.3750087,213.690004 22.3322309,213.55556 22.3872309,213.439449 C22.54612,213.115559 22.8700093,212.938337 23.2000097,213.01167 C23.3772321,213.048337 23.5300101,213.164448 23.6277879,213.329448 C23.7255658,213.494449 23.7500103,213.690004 23.6950102,213.861116 C23.5850101,214.203338 23.2305653,214.362227 23.0166761,214.460005 C22.9800094,214.478339 22.9494538,214.521117 22.9250094,214.563894 L23.4811211,214.563894 L23.4811211,214.563894 Z M25.283901,220.241123 L24.3855666,220.241123 L24.3855666,219.342789 L25.283901,219.342789 L25.283901,220.241123 Z" id="形状"></path>
            </g>
        </g>
    </g>
</svg>