<?xml version="1.0" encoding="UTF-8"?>
<svg width="10px" height="10px" viewBox="0 0 10 10" version="1.1" xmlns="http://www.w3.org/2000/svg" xmlns:xlink="http://www.w3.org/1999/xlink">
    <title>发布时间</title>
    <g id="页面-1" stroke="none" stroke-width="1" fill="none" fill-rule="evenodd">
        <g id="政策详情" transform="translate(-26.000000, -502.000000)" fill="#AFC4FF" fill-rule="nonzero">
            <g id="时间" transform="translate(26.000000, 501.000000)">
                <path d="M5,1 C2.23883929,1 0,3.23883929 0,6 C0,8.76116071 2.23883929,11 5,11 C7.76116071,11 10,8.76116071 10,6 C10,3.23883929 7.76116071,1 5,1 Z M7.0859375,6.23995536 C7.0859375,6.46986607 6.89732143,6.65848214 6.66741071,6.65848214 L4.71651786,6.65848214 C4.51227679,6.65848214 4.34151786,6.51116071 4.30580357,6.31696429 C4.29352679,6.27678571 4.28683036,6.23549107 4.28683036,6.19196429 L4.28683036,3.5390625 C4.28683036,3.30915179 4.47544643,3.12053571 4.70535714,3.12053571 L4.76785714,3.12053571 C4.99776786,3.12053571 5.18638393,3.30915179 5.18638393,3.5390625 L5.18638393,5.75892857 L6.66852679,5.75892857 C6.8984375,5.75892857 7.08705357,5.94754464 7.08705357,6.17745536 L7.08705357,6.23995536 L7.0859375,6.23995536 Z" id="发布时间"></path>
            </g>
        </g>
    </g>
</svg>