<?xml version="1.0" encoding="UTF-8"?>
<svg width="18px" height="18px" viewBox="0 0 18 18" version="1.1" xmlns="http://www.w3.org/2000/svg" xmlns:xlink="http://www.w3.org/1999/xlink">
    <title>商办载体出租成本</title>
    <g id="页面-1" stroke="none" stroke-width="1" fill="none" fill-rule="evenodd">
        <g id="城市排名" transform="translate(-32.000000, -413.000000)" fill="#282828" fill-rule="nonzero">
            <g id="背景处理" transform="translate(0.000000, 86.000000)">
                <g id="编组" transform="translate(0.000000, 85.000000)">
                    <g id="编组-8" transform="translate(0.000000, 52.000000)">
                        <path d="M45.1958083,197.132508 C45.1652083,197.008308 45.1049082,196.916508 45.0437081,196.792308 L44.952808,196.638408 C45.1652083,196.329707 45.2867084,196.021007 45.2867084,195.680807 L45.2867084,193.735908 C45.2867084,193.457808 45.2264084,193.211207 45.0743082,192.933107 L45.0437081,192.840407 C45.1049082,192.686507 45.1346083,192.562306 45.1346083,192.408406 C45.1346083,190.833404 41.7902079,190.000007 38.6599972,190.000007 C35.5270971,190.000007 32.1826967,190.833408 32.1826967,192.408406 C32.1826967,192.562306 32.2123967,192.717107 32.2735968,192.840407 L32.2429968,192.934007 L32.2429967,192.934007 C32.1023454,193.178073 32.0290461,193.45512 32.0305965,193.736808 L32.0305965,195.681707 C32.0305965,196.021907 32.1520966,196.361207 32.3644969,196.639308 L32.2735968,196.793208 C32.1214966,197.071308 32.0305965,197.349409 32.0305965,197.626609 L32.0305965,199.572404 C32.0305965,199.911705 32.1520966,200.220405 32.3347968,200.529105 L32.2429967,200.652405 C32.0908966,200.931406 31.9999965,201.208606 31.9999965,201.486706 L31.9999965,203.430709 C31.9999965,205.160511 34.9187069,206.518609 38.6285042,206.518609 C39.3881051,206.518609 40.1180059,206.457409 40.7867137,206.364709 C40.7570137,206.302608 40.6958136,206.241408 40.6652136,206.179308 L40.6652138,206.179309 C41.6680769,207.332586 43.1203006,207.996362 44.6486149,208.000018 C47.5970148,208.000018 50.0000176,205.561015 50.0000176,202.565804 C50.0297177,199.725405 47.9021187,197.409695 45.195805,197.132505 L45.1958083,197.132508 Z M38.6888008,191.111501 C42.0944082,191.111501 44.1617036,191.975502 44.1617036,192.593803 C44.1617036,193.211204 42.0647012,194.075205 38.6896972,194.075205 C35.2840898,194.075205 33.2158979,193.211204 33.2158979,192.593803 C33.2158979,191.976402 35.3137968,191.111501 38.6888008,191.111501 Z M33.0943978,194.044608 C34.0978989,194.971609 36.4100051,195.43421 38.6600077,195.43421 C40.9100104,195.43421 43.220306,194.970709 44.2238072,194.044608 L44.2238072,195.65021 C44.2238072,196.761711 41.943201,197.996506 38.6600077,197.996506 C35.3750039,197.996506 33.0952942,196.761704 33.0952942,195.65021 L33.0952942,194.044608 L33.0943978,194.044608 Z M33.1555978,197.749905 C34.188799,198.768707 36.2876015,199.416707 38.7500008,199.416707 C39.3278015,199.416707 39.8750021,199.355507 40.4222029,199.293407 L40.4222029,199.293407 C39.9884182,199.891841 39.6876861,200.576156 39.5402019,201.300409 C39.5096019,201.48581 39.4493018,201.70181 39.4493018,201.91781 C39.2360015,201.91781 38.9930013,201.94841 38.780601,201.94841 C35.4964937,201.94841 33.186198,200.713609 33.186198,199.602114 L33.1555978,197.749905 L33.1555978,197.749905 Z M38.7193973,205.313518 C35.4056004,205.313518 33.0943907,204.294717 33.0943907,203.338016 L33.0943907,201.825114 C34.1284919,202.658515 36.2569979,203.214715 38.7193973,203.214715 C38.9623976,203.214715 39.1756978,203.214715 39.4186981,203.183215 C39.5095982,203.739416 39.6922984,204.264117 39.9658987,204.727617 C40.0576988,204.912117 40.179199,205.066918 40.3312991,205.221718 C39.8137985,205.282918 39.2971979,205.313518 38.7202973,205.313518 L38.7193973,205.313518 Z M44.6791972,206.888541 L44.679197,206.888541 C43.4849677,206.892361 42.3457333,206.38691 41.5471933,205.498918 L41.5471933,205.498918 C41.3685923,205.306747 41.2060472,205.100254 41.0611927,204.881517 L41.0611927,204.881517 C40.6211361,204.178237 40.3889974,203.36482 40.3915704,202.535222 L40.3915704,202.504621 C40.3915704,202.257121 40.4221919,202.009621 40.452792,201.763021 C40.483392,201.54702 40.5436921,201.33102 40.6048921,201.11502 L40.6048921,201.11502 C41.1185853,199.557899 42.4763318,198.43082 44.1013962,198.212517 C44.2831964,198.181917 44.4658966,198.181917 44.6485968,198.181917 L44.800697,198.181917 C47.0804067,198.274617 48.9353053,200.188919 48.9353053,202.535215 C48.9659053,204.943614 47.0506996,206.888541 44.6783003,206.888541 L44.6791972,206.888541 Z M48.1334082,201.382306 L47.6024076,200.864806 L47.6024076,200.864806 C47.5002201,200.778724 47.3508942,200.778724 47.2487072,200.864806 L44.3569968,203.681809 L42.8512951,202.215707 L42.8512951,202.215707 C42.7491075,202.129626 42.5997817,202.129626 42.4975947,202.215707 L41.966594,202.734108 L41.966594,202.734108 C41.8783022,202.832047 41.8783022,202.98087 41.966594,203.078808 L44.1499931,205.235207 C44.2381932,205.321607 44.3857933,205.321607 44.5036935,205.235207 L48.1334047,201.726996 C48.2225048,201.612696 48.2225048,201.468696 48.1334047,201.382296" id="商办载体出租成本"></path>
                    </g>
                </g>
            </g>
        </g>
    </g>
</svg>