<?xml version="1.0" encoding="UTF-8"?>
<svg width="26px" height="26px" viewBox="0 0 26 26" version="1.1" xmlns="http://www.w3.org/2000/svg" xmlns:xlink="http://www.w3.org/1999/xlink">
    <title>城市排名 未选中</title>
    <g id="页面-1" stroke="none" stroke-width="1" fill="none" fill-rule="evenodd">
        <g id="首页" transform="translate(-128.000000, -289.000000)">
            <g id="编组-3" transform="translate(0.000000, 213.000000)">
                <g id="编组" transform="translate(20.000000, 77.059923)">
                    <g id="城市排名" transform="translate(93.000000, 0.000000)">
                        <g id="城市排名-未选中" transform="translate(16.000000, 0.000000)">
                            <polygon id="路径-90" fill="#E7E7E7" opacity="0.4" points="0.716550404 19.4762463 0.716550404 6.12748979 6.52300202 7.82096684 6.52300202 21.2308264"></polygon>
                            <polygon id="路径-98" fill="#E7E7E7" opacity="0.4" points="8.27021819 21.4046122 8.27021819 8.25781984 12.1783343 6.93062891 14.7322982 10.9824447 14.7322982 19.3358781"></polygon>
                            <path d="M15.8723643,12 C18.3972325,9.15584536 19.6880038,7.466055 19.744678,6.93062891 C20.2487893,7.11239263 21.0986564,7.41107563 22.2942794,7.82667792 L22.2942794,21.2308264 L16.2553209,19.302791 L15.8723643,12 Z" id="路径-99" fill="#E7E7E7" opacity="0.4"></path>
                            <path d="M14.8805745,10.9824447 C12.4384519,7.870267 11.3120131,5.54845773 11.5012582,4.01701686 C11.7851258,1.71985556 14.261523,0.505876239 15.872138,0.505876239 C17.4827531,0.505876239 19.6228716,3.71337254 18.5528123,5.98559619 C17.8394395,7.50041196 16.6153602,9.16602812 14.8805745,10.9824447 Z" id="路径-100" fill="#F5F5F5" opacity="0.4"></path>
                            <path d="M24,15.8663622 L24,8.12823466 L24,8.12826417 C24,7.95863635 23.888474,7.80919317 23.7258586,7.76092218 L20.1457938,6.69882431 C20.4228115,6.02072606 20.5956918,5.34832178 20.5956918,4.72351103 C20.5952567,2.11891199 18.4759353,0 15.8721404,0 C13.267532,0 11.1486124,2.1189073 11.1486124,4.72351103 C11.1486124,5.34791624 11.3214936,6.02113394 11.5985104,6.69882431 L8.12744956,7.72878605 L0.492203404,5.46303337 L0.492203399,5.46303337 C0.289020036,5.40304953 0.0756817239,5.51913528 0.0156967329,5.72231885 C0.00534049031,5.7573983 0,5.79377877 0,5.83035497 L0,21.3192451 C0,21.4884648 0.111457594,21.638159 0.274169549,21.6861581 L8.01274676,23.9824201 L8.01844167,23.9840472 L8.02250946,23.9848607 L8.02250947,23.9848607 C8.03681093,23.9889775 8.05134512,23.9922375 8.06603487,23.9946234 L8.07823825,23.9962505 L8.07823824,23.9962505 C8.11105054,24.0004954 8.14427307,24.0004954 8.17708536,23.9962506 C8.18115316,23.9962506 8.18522095,23.9950302 8.18888198,23.9946234 L8.18888198,23.9946234 C8.20370204,23.9922191 8.21837072,23.9889594 8.23281409,23.9848608 C8.23403442,23.9848608 8.23525477,23.9848608 8.23647512,23.9840472 L8.24013613,23.9832337 L15.7167522,21.7646666 L15.7167522,21.7646666 C15.8156411,21.8088175 15.9286428,21.8088175 16.0275307,21.7646666 L23.5082022,23.9840471 L23.5082022,23.9840471 C23.7108504,24.0442555 23.9239386,23.9287858 23.9841463,23.7261377 C23.9946195,23.6908875 24,23.6543123 24,23.6175392 L24,15.869238 L24,15.8663905 L24,15.8663622 Z M23.2340351,8.41419905 L23.2340351,15.3595308 L16.2553209,13.2890305 L16.2553209,12.1992715 C16.7544394,11.6846973 18.7159269,9.59507095 19.8231726,7.40173179 L23.2340351,8.41338797 L23.2340351,8.41419905 Z M15.8721427,0.765548197 C18.0541088,0.765548197 19.8296894,2.5407286 19.8296894,4.72308066 C19.8296894,5.34504325 19.6214182,6.03778783 19.298029,6.7390722 L19.298029,6.73907219 C19.2817005,6.76519413 19.2685886,6.79319351 19.2589782,6.82246155 C18.3359961,8.77092948 16.5510388,10.7674059 15.8721434,11.4894314 C15.1936349,10.7682146 13.4103185,8.77418787 12.4869261,6.8269389 L12.4869261,6.82693889 C12.4768886,6.79483957 12.4626644,6.764203 12.4446211,6.73582059 C12.1220444,6.03575519 11.9145876,5.34423192 11.9145876,4.72308275 C11.9145876,2.54071897 13.6901799,0.765548197 15.8725562,0.765548197 L15.8721427,0.765548197 Z M15.489363,12.1992715 L15.489363,13.288217 L8.51025034,15.3587174 L8.51025034,8.41420608 L11.9210894,7.40254991 C13.0287501,9.59589609 14.9898436,11.685921 15.489363,12.2000896 L15.489363,12.1992715 Z M0.765967673,14.0879422 L3.41207698,14.8730233 L3.41207702,14.8730233 C3.61189392,14.9434131 3.83094052,14.8384924 3.90132894,14.6386765 C3.971719,14.4388603 3.8667979,14.2198145 3.66698123,14.1494263 C3.65474984,14.1451175 3.64230789,14.1414318 3.62970305,14.1383833 L0.765967673,13.2886243 L0.765967673,6.34329257 L7.74426227,8.41379291 L7.74426227,15.3599451 L5.09856058,14.574864 L5.09856058,14.574864 C4.89580666,14.5146558 4.68263432,14.6302115 4.62242429,14.8329657 C4.5622159,15.0357188 4.67777204,15.2488904 4.88052689,15.3091002 C4.88052689,15.3091002 4.88052689,15.3091002 4.88052689,15.3091002 L7.74426227,16.1588592 L7.74426227,23.1041909 L0.765967673,21.0336906 L0.765967673,14.0879603 L0.765967673,14.0879422 Z M16.2553209,21.0332739 L16.2553209,18.2606688 L16.2553209,18.2606688 C16.2553209,18.0491538 16.0838537,17.8776865 15.8723373,17.8776865 C15.6608216,17.8776865 15.4893537,18.0491531 15.4893537,18.2606688 L15.4893537,21.0332739 L8.51024096,23.1037743 L8.51024096,16.1584425 L15.4893537,14.0879422 L15.4893537,16.7287351 L15.4893537,16.7287351 C15.4893537,16.9402501 15.6608211,17.1117174 15.8723373,17.1117174 C16.083853,17.1117173 16.2553209,16.9402506 16.2553209,16.7287351 L16.2553209,14.0879422 L23.2340351,16.1584426 L23.2340351,23.1037743 L16.2553209,21.033274 L16.2553209,21.0332739 Z M15.8721357,7.40417209 L15.8721356,7.40417209 C17.3518888,7.40237903 18.5510307,6.20325289 18.5528123,4.72350496 L18.5528123,4.72354712 C18.5510425,3.24379919 17.3519311,2.04466157 15.8721825,2.04283313 L15.8721824,2.04283313 C14.3924291,2.0446263 13.1932872,3.2437523 13.1915056,4.72350024 L13.1915056,4.7234581 C13.1932755,6.20320604 14.3923869,7.40234365 15.8721354,7.40417209 L15.8721357,7.40417209 Z M15.8721357,2.80839262 L15.8721357,2.80839262 C16.9293615,2.80951545 17.7861325,3.66628295 17.7872531,4.72350496 L17.7872531,4.72345197 C17.7859372,5.78051458 16.929256,6.63705986 15.8721873,6.6382085 L15.8721873,6.6382085 C14.815278,6.63686386 13.9588211,5.78040909 13.9574755,4.72350354 L13.9574755,4.72355 C13.9585704,3.66648739 14.815074,2.80976395 15.8721404,2.80839262 L15.8721357,2.80839262 Z" id="形状" stroke="#9E9E9E" stroke-width="0.7" fill="#9E9E9E" fill-rule="nonzero"></path>
                        </g>
                    </g>
                </g>
            </g>
        </g>
    </g>
</svg>