<?xml version="1.0" encoding="UTF-8"?>
<svg width="20px" height="20px" viewBox="0 0 20 20" version="1.1" xmlns="http://www.w3.org/2000/svg" xmlns:xlink="http://www.w3.org/1999/xlink">
    <title>城市排名</title>
    <g id="页面-1" stroke="none" stroke-width="1" fill="none" fill-rule="evenodd">
        <g id="城市排名" transform="translate(-30.000000, -237.000000)">
            <g id="背景处理" transform="translate(0.000000, 86.000000)">
                <g id="编组" transform="translate(0.000000, 85.000000)">
                    <g id="编组-8" transform="translate(0.000000, 52.000000)">
                        <g id="城市排名" transform="translate(30.000000, 14.000000)">
                            <circle id="椭圆形" fill="#4768C8" cx="10" cy="10" r="10"></circle>
                            <rect id="矩形" fill-opacity="0.01" fill="#FFFFFF" fill-rule="nonzero" x="3" y="6.5" width="11" height="11"></rect>
                            <path d="M5,16.5 L5,7.73076923 C5,7.60332 5.12210545,7.5 5.27272727,7.5 L10.7272727,7.5 C10.8779,7.5 11,7.60332 11,7.73076923 L11,16.5" id="路径"></path>
                            <path d="M7,14.5 L7,5.73076923 C7,5.60332 7.10175455,5.5 7.22727273,5.5 L11.7727273,5.5 C11.89825,5.5 12,5.60332 12,5.73076923 L12,14.5" id="路径" stroke="#FFFFFF" stroke-linecap="round" stroke-linejoin="round"></path>
                            <polyline id="路径" stroke="#FFFFFF" stroke-linecap="round" stroke-linejoin="round" points="12 8.64872179 14 9.74123448 14 14.5"></polyline>
                            <line x1="6" y1="14.5" x2="15" y2="14.5" id="路径" stroke="#FFFFFF" stroke-linecap="round"></line>
                        </g>
                    </g>
                </g>
            </g>
        </g>
    </g>
</svg>