<?xml version="1.0" encoding="UTF-8"?>
<svg width="18px" height="18px" viewBox="0 0 18 18" version="1.1" xmlns="http://www.w3.org/2000/svg" xmlns:xlink="http://www.w3.org/1999/xlink">
    <title>工业用地平均出让价格</title>
    <g id="页面-1" stroke="none" stroke-width="1" fill="none" fill-rule="evenodd">
        <g id="城市排名" transform="translate(-30.000000, -292.000000)" fill="#282828" fill-rule="nonzero">
            <g id="背景处理" transform="translate(0.000000, 86.000000)">
                <g id="编组" transform="translate(0.000000, 85.000000)">
                    <g id="编组-8" transform="translate(0.000000, 52.000000)">
                        <path d="M38.7995118,68.9999727 L38.7995122,68.9999727 C33.9396722,69.0002146 30.0001723,72.9400671 30.0003957,77.7998899 C30.0006103,82.6594206 33.9399815,86.5988002 38.7995122,86.5990064 L38.7995122,86.5990064 C38.8217841,86.6003437 38.8441161,86.6003437 38.866388,86.5990064 L38.866388,86.5990064 C38.88866,86.6003438 38.9109919,86.6003438 38.9332638,86.5990065 L46.5765196,86.5990065 L46.5765196,86.5990065 C46.9448945,86.5980815 47.2427697,86.2987061 47.241845,85.9303312 C47.2413958,85.7514022 47.1690753,85.5801561 47.0411326,85.4550705 L43.8416242,82.3435622 L43.8416242,82.3435622 C43.5777356,82.0869628 43.1557958,82.0928719 42.8991964,82.3567614 C42.642597,82.62065 42.6485061,83.0425899 42.9123956,83.2991892 L44.9362777,85.2658712 L38.9350145,85.2658712 L38.9350145,85.2658712 C38.9127425,85.2645339 38.8904106,85.2645339 38.8681387,85.2658712 L38.8681387,85.2658712 C38.8458667,85.2645339 38.8235348,85.2645338 38.8012629,85.2658711 L38.8012628,85.2658711 C34.6811049,85.2624824 31.343787,81.9196844 31.3471729,77.7995093 C31.3505616,73.6793514 34.6933596,70.3420335 38.8135347,70.3454194 C42.9336926,70.3488081 46.2710106,73.6916061 46.2676246,77.8117812 C46.2672306,78.2909091 46.2206804,78.7688837 46.1286189,79.2390827 L46.1286189,79.2390827 C46.0573238,79.6004933 46.2925087,79.9512699 46.6539193,80.0225655 C47.0153299,80.0938605 47.3661065,79.8586756 47.4374021,79.497265 C47.4375991,79.4962666 47.4377937,79.4952677 47.4379861,79.4942684 L47.4379863,79.4942674 C48.3691322,74.7195228 45.2532806,70.0939831 40.478536,69.162832 C39.9253626,69.054955 39.3631107,69.0004185 38.7995164,68.9999727 L38.7995118,68.9999727 Z M39.112775,83.7224515 L39.112775,83.7224515 C39.4974488,83.7195771 39.8085808,83.4084441 39.8114562,83.0237702 L39.8114562,81.2066712 L41.7209553,81.2066712 L41.7209553,81.2066712 C42.1068254,81.2066713 42.4196366,80.8938618 42.4196366,80.50799 C42.4196366,80.1221198 42.1068272,79.8093087 41.7209553,79.8093087 L39.8114562,79.8093087 L39.8114562,78.598496 L41.6743084,78.598496 L41.6743084,78.598496 C42.0604226,78.5847955 42.3623231,78.2606822 42.3486229,77.874568 C42.3356047,77.5076815 42.0411949,77.213273 41.6743084,77.2002534 L39.8052859,77.2002534 L39.8052859,77.2002535 C39.836931,77.1775226 39.8663901,77.1518933 39.893281,77.1236977 L42.1987462,74.8182325 L42.1987462,74.8182324 C42.4716256,74.5453531 42.4716256,74.1029274 42.1987461,73.830048 C41.9258668,73.5571686 41.4834411,73.5571686 41.2105617,73.8300481 L39.1083561,75.9331302 L36.9084739,73.733248 L36.9084739,73.733248 C36.6170199,73.4803628 36.1757458,73.5116304 35.9228607,73.8030853 C35.6929003,74.0681203 35.6951879,74.4626031 35.9282084,74.7249517 L38.2336736,77.0304169 L38.2336736,77.0304169 C38.3120374,77.1085742 38.4079929,77.166811 38.5134985,77.2002475 L36.5503228,77.2002475 L36.5503228,77.2002475 C36.1642086,77.213948 35.8623081,77.5380613 35.8760082,77.9241755 C35.8890265,78.291062 36.1834363,78.5854705 36.5503228,78.59849 L38.4140515,78.59849 L38.4140515,79.8093027 L36.5995994,79.8093027 L36.5995994,79.8093027 C36.2137292,79.8093027 35.9009181,80.1221121 35.9009181,80.507984 C35.9009181,80.8938541 36.2137275,81.2066653 36.5995994,81.2066653 L38.4140515,81.2066653 L38.4140515,83.0237643 L38.4140515,83.0237623 C38.4169248,83.4084362 38.7280571,83.7195698 39.112731,83.7224515 L39.112775,83.7224515 Z M39.0101086,77.1931363 L39.0429446,77.269932 L38.9429446,77.269932 C38.9653327,77.269932 38.9877207,77.2392138 39.0101089,77.1931363 L39.0101086,77.1931363 Z" id="工业用地平均出让价格"></path>
                    </g>
                </g>
            </g>
        </g>
    </g>
</svg>