<?xml version="1.0" encoding="UTF-8"?>
<svg width="10px" height="8px" viewBox="0 0 10 8" version="1.1" xmlns="http://www.w3.org/2000/svg" xmlns:xlink="http://www.w3.org/1999/xlink">
    <title>形状</title>
    <g id="页面-1" stroke="none" stroke-width="1" fill="none" fill-rule="evenodd">
        <g id="产业投资-活跃区域详情" transform="translate(-207.000000, -530.000000)" fill="#AFC4FF" fill-rule="nonzero">
            <g id="编组" transform="translate(10.000000, 318.000000)">
                <path d="M206.718761,214.863641 C206.989595,214.707391 207.000004,214.582391 207.000004,214.36364 L207.000004,212.863639 C207.000004,212.446971 206.625011,212.113638 206.166678,212.113638 L197.833338,212.113638 C197.375004,212.113638 197.000004,212.446971 197.000004,212.863639 L197.000004,214.36364 C197.000004,214.592808 197.020837,214.738641 197.281254,214.863641 C197.656255,215.019891 198.114588,215.342809 198.114588,215.863642 C198.114588,216.540726 197.645838,216.759476 197.302087,216.863643 C197.052087,216.99906 197.000004,217.228227 197.000004,217.363644 L197.000004,218.863646 C197.000004,219.280313 197.375004,219.613638 197.833338,219.613638 L206.166678,219.613638 C206.625011,219.613638 207.000004,219.280313 207.000004,218.863646 L207.000004,217.363644 C207.000004,217.092811 206.927095,216.99906 206.718761,216.863643 C206.114594,216.582393 205.885427,216.332393 205.885427,215.863642 C205.885427,215.394892 206.104178,215.165724 206.718761,214.863641 M203.666678,215.738642 C203.666678,215.811559 203.604178,215.863642 203.531261,215.863642 L202.281259,215.863642 L202.281259,216.363643 L203.531261,216.363643 C203.604177,216.363643 203.666678,216.415726 203.666678,216.488643 L203.666678,216.738643 C203.666678,216.81156 203.604178,216.863643 203.531261,216.863643 L202.281259,216.863643 L202.281259,217.738644 C202.281259,217.811561 202.218759,217.863645 202.145842,217.863645 L201.864592,217.863645 C201.791675,217.863645 201.729174,217.811561 201.729174,217.738644 L201.729174,216.863643 L200.479173,216.863643 C200.406256,216.863643 200.343756,216.81156 200.343756,216.738643 L200.343756,216.488643 C200.343756,216.415726 200.406256,216.363643 200.479173,216.363643 L201.729174,216.363643 L201.729174,215.863642 L200.479173,215.863642 C200.406256,215.863642 200.343756,215.811559 200.343756,215.738642 L200.343756,215.488642 C200.343756,215.415725 200.406256,215.363642 200.479173,215.363642 L201.531254,215.363642 L200.385423,214.25947 C200.33334,214.207387 200.33334,214.13447 200.385423,214.082387 L200.562506,213.905304 C200.614589,213.853221 200.687506,213.853221 200.739589,213.905304 L202.000011,215.134475 L203.260432,213.915724 C203.312515,213.863641 203.385432,213.863641 203.437515,213.915724 L203.614599,214.092807 C203.666678,214.14489 203.666678,214.217807 203.614599,214.26989 L202.479177,215.363642 L203.531259,215.363642 C203.604175,215.363642 203.666678,215.415725 203.666678,215.488642 L203.666678,215.738642" id="形状"></path>
            </g>
        </g>
    </g>
</svg>