<?xml version="1.0" encoding="UTF-8"?>
<svg width="10px" height="12px" viewBox="0 0 10 12" version="1.1" xmlns="http://www.w3.org/2000/svg" xmlns:xlink="http://www.w3.org/1999/xlink">
    <title>截止日期</title>
    <g id="页面-1" stroke="none" stroke-width="1" fill="none" fill-rule="evenodd">
        <g id="政策详情" transform="translate(-230.000000, -501.000000)">
            <g id="时间" transform="translate(26.000000, 501.000000)">
                <g id="截止日期" transform="translate(204.000000, 0.000000)">
                    <path d="M5,2 C2.23883929,2 0,4.23883929 0,7 C0,9.76116071 2.23883929,12 5,12 C7.76116071,12 10,9.76116071 10,7 C10,4.23883929 7.76116071,2 5,2 Z M7.0859375,7.23995536 C7.0859375,7.46986607 6.89732143,7.65848214 6.66741071,7.65848214 L4.71651786,7.65848214 C4.51227679,7.65848214 4.34151786,7.51116071 4.30580357,7.31696429 C4.29352679,7.27678571 4.28683036,7.23549107 4.28683036,7.19196429 L4.28683036,4.5390625 C4.28683036,4.30915179 4.47544643,4.12053571 4.70535714,4.12053571 L4.76785714,4.12053571 C4.99776786,4.12053571 5.18638393,4.30915179 5.18638393,4.5390625 L5.18638393,6.75892857 L6.66852679,6.75892857 C6.8984375,6.75892857 7.08705357,6.94754464 7.08705357,7.17745536 L7.08705357,7.23995536 L7.0859375,7.23995536 Z" id="形状" fill="#AFC4FF" fill-rule="nonzero"></path>
                    <line x1="2.5" y1="0.5" x2="7.5" y2="0.5" id="直线-4" stroke="#AFC4FF" stroke-linecap="round"></line>
                </g>
            </g>
        </g>
    </g>
</svg>