<?xml version="1.0" encoding="UTF-8"?>
<svg width="10px" height="9px" viewBox="0 0 10 9" version="1.1" xmlns="http://www.w3.org/2000/svg" xmlns:xlink="http://www.w3.org/1999/xlink">
    <title>形状</title>
    <g id="页面-1" stroke="none" stroke-width="1" fill="none" fill-rule="evenodd">
        <g id="产业投资-活跃区域详情" transform="translate(-112.000000, -529.000000)" fill="#AFC4FF" fill-rule="nonzero">
            <g id="编组" transform="translate(10.000000, 318.000000)">
                <path d="M104.570752,214.51987 C104.393746,214.436899 104.133769,214.348395 103.840603,214.270956 C103.547437,214.193516 103.276397,214.143732 103.082797,214.127138 C102.950043,214.116075 102.883664,214.110544 102.878134,214.127138 C102.872602,214.138201 102.933448,214.171389 103.055139,214.226704 C103.232145,214.309675 103.492122,214.398179 103.785289,214.475618 C104.078455,214.553058 104.349495,214.602842 104.543095,214.619436 C104.675849,214.630499 104.742227,214.63603 104.747758,214.619436 C104.747758,214.608373 104.692443,214.575185 104.570752,214.51987 Z M110.56129,215.96911 L110.56129,215.559784 L111.960747,215.559784 L111.960747,219.299039 L110.56129,219.299039 L110.56129,218.712707 L108.763574,218.021277 L104.592875,218.535701 L102.275199,217.340911 L102.347108,216.903928 L102.037347,216.649481 L102.081598,216.184841 L102.037347,215.985709 L102.219885,215.29428 L105.040921,216.195904 L107.247959,215.598509 L107.242427,215.427034 L105.511091,215.427034 L105.859572,214.591787 L108.990365,214.093957 L110.406408,215.919333 L110.561288,215.969116 L110.56129,215.96911 Z M103.884847,214.099488 C104.194608,214.18246 104.47118,214.276494 104.670311,214.370528 C104.841786,214.447968 104.963477,214.530939 105.01326,214.613911 C105.040917,214.658162 105.046448,214.691351 105.035385,214.730071 C104.991134,214.901546 104.941351,215.084082 104.897099,215.255557 C104.869442,215.310871 104.852848,215.332997 104.808596,215.349591 C104.437991,215.521066 102.695587,215.089614 102.457737,214.724539 C102.430079,214.680288 102.419017,214.65263 102.430079,214.602847 C102.474331,214.431372 102.524114,214.248836 102.568365,214.077361 C102.579428,214.038641 102.596022,214.016515 102.640274,213.988858 C102.723245,213.944607 102.872594,213.928012 103.060663,213.944607 C103.287453,213.966732 103.575087,214.016515 103.884847,214.099487 L103.884847,214.099488 Z M105.715748,213.662505 C105.654902,213.474437 105.538742,213.225522 105.394924,212.960013 C105.251107,212.694504 105.101758,212.462184 104.980067,212.307304 C104.897095,212.202206 104.852843,212.152423 104.841781,212.157955 C104.830718,212.163487 104.847312,212.224332 104.891564,212.357087 C104.95241,212.545156 105.068569,212.79407 105.212387,213.059579 C105.356205,213.325088 105.505554,213.557408 105.627245,213.712289 C105.710216,213.817386 105.754468,213.867169 105.765531,213.861637 C105.776594,213.856106 105.754468,213.79526 105.715748,213.662505 L105.715748,213.662505 Z M105.549805,212.877042 C105.704685,213.159145 105.820845,213.424653 105.892754,213.634848 C105.953599,213.811854 105.975725,213.955672 105.948068,214.049706 L105.948068,214.049706 C105.941053,214.090801 105.916927,214.12699 105.881691,214.149271 C105.72681,214.232243 105.560867,214.326277 105.400456,214.409249 C105.33961,214.431374 105.317485,214.431374 105.273233,214.409249 C104.897095,214.254368 104.017599,212.694499 104.117163,212.274117 C104.128226,212.218802 104.139289,212.196677 104.189072,212.174551 C104.343952,212.091579 104.509896,211.997545 104.670307,211.914574 L104.670307,211.914574 C104.706386,211.895948 104.748781,211.893929 104.786467,211.909042 C104.880501,211.936699 104.99113,212.036265 105.10729,212.185614 C105.240044,212.351557 105.400457,212.59494 105.549805,212.877043 L105.549805,212.877042 Z M106.672686,211.460999 C106.578652,211.610347 106.473554,211.831605 106.373989,212.080519 C106.274424,212.334966 106.202514,212.561754 106.163795,212.733229 C106.136137,212.849389 106.130606,212.910234 106.141669,212.910234 C106.152732,212.915766 106.18592,212.865983 106.246766,212.766417 C106.3408,212.617068 106.445898,212.395811 106.545463,212.146896 C106.645029,211.897982 106.716938,211.665662 106.755658,211.494187 C106.783315,211.378026 106.788846,211.317181 106.777784,211.317181 C106.766721,211.311649 106.733532,211.355901 106.672686,211.460999 L106.672686,211.460999 Z M106.22464,212.025205 C106.119542,212.290714 106.042102,212.539629 106.003382,212.727697 C105.970194,212.89364 105.964662,213.026394 105.997851,213.103835 C106.014445,213.142555 106.031039,213.16468 106.069759,213.175743 C106.219108,213.236589 106.373988,213.297435 106.523337,213.358281 C106.567588,213.374875 106.589714,213.369344 106.633966,213.347218 C106.976914,213.175743 107.546652,211.682251 107.441556,211.339311 C107.430493,211.300591 107.413898,211.283996 107.369647,211.250808 C107.220298,211.189962 107.065418,211.129116 106.916069,211.06827 C106.882881,211.051676 106.849692,211.057207 106.810972,211.073801 C106.733532,211.112522 106.645029,211.206555 106.556526,211.350373 C106.445897,211.521848 106.329736,211.759699 106.22464,212.025208 L106.22464,212.025205 Z" id="形状"></path>
            </g>
        </g>
    </g>
</svg>