<?xml version="1.0" encoding="UTF-8"?>
<svg width="21px" height="25px" viewBox="0 0 21 25" version="1.1" xmlns="http://www.w3.org/2000/svg" xmlns:xlink="http://www.w3.org/1999/xlink">
    <title>政策 选中</title>
    <g id="页面-1" stroke="none" stroke-width="1" fill="none" fill-rule="evenodd">
        <g id="画板" transform="translate(-146.000000, -183.000000)">
            <g id="政策-选中" transform="translate(146.162525, 182.999620)">
                <rect id="矩形" fill="#E6F1FF" x="1.66356243" y="1.82646745" width="13.6956522" height="16.4347826" rx="1"></rect>
                <path d="M19.7241551,24.3090745 L2.74554041,24.3090745 L2.74554039,24.3090745 C1.33783264,24.4137923 0.111762141,23.3575115 0.00704265227,21.9498038 C-0.0023475514,21.8235724 -0.0023475514,21.6968172 0.0070426561,21.5705862 L0.0070426561,17.1890136 L0.0070426561,17.1890135 C0.00704273222,16.6848711 0.415731238,16.2761849 0.919871278,16.2761849 L0.919871238,16.2761849 C1.42401365,16.2761849 1.83269986,16.6848734 1.83269986,17.1890135 L1.83269986,21.5705861 C1.83269986,22.1182833 1.83269986,22.4834147 2.74552848,22.4834147 L19.7241432,22.4834147 L19.7241432,22.4834147 C20.2282856,22.4834147 20.6369718,22.8921033 20.6369718,23.3962434 C20.6369718,23.9003858 20.2282832,24.309072 19.7241432,24.309072 L19.7241551,24.3090745 Z M17.7159298,21.2054679 L0.919873663,21.2054679 L0.919873623,21.2054679 C0.415731209,21.2054679 0.00704500164,20.796771 0.00704500164,20.2926309 C0.00704500164,20.2926309 0.00704500164,20.2926309 0.00704500164,20.2926309 L0.00704500164,2.76631661 L0.00704500164,2.76631703 C0.00704500164,1.25389216 1.23310837,0.0278192878 2.74554274,0.0278192878 L17.7159416,0.0278192878 L17.7159414,0.027819318 C19.1123628,-0.178612002 20.4117203,0.786064403 20.6181673,2.18248572 C20.6467348,2.37573355 20.6530538,2.57161954 20.6370002,2.76630756 L20.6370002,18.4669646 L20.6370002,18.4669645 C20.5404679,20.0085137 19.2605113,21.2084779 17.7159439,21.2054679 L17.7159298,21.2054679 Z M1.83269041,19.3797999 L17.7159298,19.3797999 C18.0810613,19.3797999 18.8113241,19.197234 18.8113241,18.4669713 L18.8113241,2.76631426 C18.8113241,2.03605136 18.4461927,1.85348564 17.7159298,1.85348564 L2.74553091,1.85348564 L2.74553095,1.85348564 C2.24138854,1.85348564 1.83269041,2.26217422 1.83269041,2.76631426 C1.83269041,2.76631427 1.83269041,2.76631428 1.83269041,2.76631429 L1.83269041,19.3797999 Z M7.49222074,16.8238845 L6.76195785,16.8238845 L6.76195793,16.8238846 C6.27672913,16.5010161 5.99885205,15.945262 6.03169503,15.3633588 L6.5793922,12.8074434 L4.75373258,10.9817838 L4.75373267,10.9817839 C4.37115748,10.6000042 4.23069564,10.0381568 4.38860123,9.52125808 L4.38860113,9.52125831 C4.60083002,8.99435543 5.09930927,8.6382973 5.6665612,8.60842969 L8.039918,8.24329824 L9.13531234,5.86994145 L9.13531235,5.86994143 C9.52581869,5.16414395 10.41455,4.90854766 11.1203474,5.299054 C11.3605041,5.43192854 11.5583598,5.62978474 11.6912349,5.86994143 L12.7866292,8.0607325 L15.159986,8.42586395 L15.159986,8.42586396 C15.5895188,8.57185622 15.9268224,8.90915983 16.0728147,9.33869258 L16.0728147,9.33869267 C16.2796544,9.82285527 16.2099027,10.38087 15.8902487,10.7992185 L14.0645891,12.6248781 L14.4297206,15.1807935 L14.4297206,15.1807936 C14.5441809,15.7325276 14.3310437,16.3008932 13.8820234,16.6413194 L13.8820235,16.6413194 C13.430134,16.9022181 12.8733849,16.9022181 12.4214977,16.6413195 L10.2307067,15.5459251 L8.22248132,16.6413195 L7.49222074,16.8238845 Z M10.2307185,13.7202672 L10.7784157,13.7202672 L12.6040753,14.6330958 L12.2389438,12.8074362 L12.2389438,12.8074362 C12.1485491,12.3475396 12.2843605,11.8721986 12.6040753,11.5294762 L14.0646011,10.0689504 L12.0563757,10.0689504 C11.8738098,9.8863844 11.3261128,9.70381891 11.1435471,9.15612174 L10.4132842,7.33046212 L9.50045559,8.97355364 C9.13532414,9.52125081 8.77019269,9.88638226 8.40506124,9.88638226 L6.57940162,9.88638226 L7.85736169,11.3469081 L7.85736168,11.3469081 C8.21438865,11.5950885 8.42072879,12.0077735 8.40505886,12.4423024 L8.03992741,14.6330958 L9.68301893,13.9028306 L10.2307185,13.7202672 Z" id="形状" fill="#4768C8" fill-rule="nonzero"></path>
            </g>
        </g>
    </g>
</svg>