<?xml version="1.0" encoding="UTF-8"?>
<svg width="20px" height="20px" viewBox="0 0 20 20" version="1.1" xmlns="http://www.w3.org/2000/svg" xmlns:xlink="http://www.w3.org/1999/xlink">
    <title>政策</title>
    <g id="页面-1" stroke="none" stroke-width="1" fill="none" fill-rule="evenodd">
        <g id="专项政策" transform="translate(-23.000000, -237.000000)">
            <g id="背景处理" transform="translate(0.000000, 86.000000)">
                <g id="编组" transform="translate(0.000000, 85.000000)">
                    <g id="编组-8" transform="translate(0.000000, 52.000000)">
                        <g id="政策" transform="translate(23.000000, 14.000000)">
                            <circle id="椭圆形" fill="#4768C8" cx="10" cy="10" r="10"></circle>
                            <rect id="矩形" fill-opacity="0.01" fill="#FFFFFF" fill-rule="nonzero" x="3" y="6.5" width="11" height="11"></rect>
                            <path d="M5,16.5 L5,7.73076923 C5,7.60332 5.12210545,7.5 5.27272727,7.5 L10.7272727,7.5 C10.8779,7.5 11,7.60332 11,7.73076923 L11,16.5" id="路径"></path>
                            <path d="M12.2502007,11.1737392 L14.0909091,9.05533341 L11.3905679,8.45427576 L10,6 L8.60943215,8.45427576 L5.90909091,9.05533341 L7.74979927,11.1737392 L7.47178606,14 L10,12.8546369 L12.5282139,14 L12.2502007,11.1737392 Z M10,13.690784 L7.22426221,14.9726689 C7.12401661,15.018889 7.00789512,15.0058444 6.91927165,14.9384073 C6.83064817,14.8709702 6.7828518,14.7592834 6.7937355,14.6450643 L7.09923807,11.4820952 L5.07818234,9.11118942 C5.00520559,9.02545395 4.98120043,8.90552739 5.01514821,8.79627943 C5.04909599,8.68703146 5.13588081,8.60492569 5.24303274,8.58068141 L8.20731501,7.9080353 L9.73381955,5.16038425 C9.78899097,5.06108107 9.89036368,5 10,5 C10.1096363,5 10.211009,5.06108107 10.2661804,5.16038425 L11.792685,7.9080353 L14.7569673,8.58068141 C14.8641192,8.60492569 14.950904,8.68703146 14.9848518,8.79627943 C15.0187996,8.90552739 14.9947944,9.02545395 14.9218177,9.11118942 L12.9002578,11.4820952 L13.2062645,14.6450643 C13.2171482,14.7592834 13.1693518,14.8709702 13.0807284,14.9384073 C12.9921049,15.0058444 12.8759834,15.018889 12.7757378,14.9726689 L10,13.690784 Z" id="形状" stroke="#FFFFFF" stroke-width="0.4" fill="#FFFFFF" fill-rule="nonzero"></path>
                        </g>
                    </g>
                </g>
            </g>
        </g>
    </g>
</svg>