<?xml version="1.0" encoding="UTF-8"?>
<svg width="18px" height="15px" viewBox="0 0 18 15" version="1.1" xmlns="http://www.w3.org/2000/svg" xmlns:xlink="http://www.w3.org/1999/xlink">
    <title>景区</title>
    <g id="页面-1" stroke="none" stroke-width="1" fill="none" fill-rule="evenodd">
        <g id="城市排名" transform="translate(-31.000000, -355.000000)" fill="#282828" fill-rule="nonzero">
            <g id="背景处理" transform="translate(0.000000, 86.000000)">
                <g id="编组" transform="translate(0.000000, 85.000000)">
                    <g id="编组-8" transform="translate(0.000000, 52.000000)">
                        <g id="景区" transform="translate(31.000000, 132.000000)">
                            <path d="M17.9657169,13.5772767 L15.633304,6.46046596 L15.633304,6.46046599 C15.6200238,6.41902258 15.6025618,6.37922015 15.5812214,6.34175087 C15.2623817,5.81000009 14.5972772,5.65297071 14.0956092,5.99107352 L14.0956093,5.99107348 C13.9624385,6.08082524 13.8495342,6.20055014 13.7649081,6.34175083 L13.7649081,6.34175085 C13.7526532,6.36197929 13.7419438,6.38321408 13.7328821,6.4052523 L11.928556,10.5998153 L7.39573408,0.789994518 L7.39573413,0.789994609 C7.118884,0.282566043 6.60007441,-0.0209967807 6.04751717,0.00113251109 L6.04751722,0.00113251133 C5.4984591,-0.00173339867 4.9925246,0.316157222 4.73130824,0.828137392 L4.70729776,0.891753152 L0.0344207113,13.5518229 L0.0344206986,13.5518229 C-0.0759678221,13.8831907 0.0879372808,14.2466846 0.400513954,14.3637079 C0.462860497,14.3870496 0.528416823,14.3993102 0.594533333,14.4 L17.397517,14.4 L17.397517,14.4 C17.7288508,14.4014812 17.9985876,14.1179395 18,13.7666868 C18.0002817,13.6935026 17.9886568,13.6208141 17.9656268,13.5518221 L17.9656268,13.5772761 L17.9657169,13.5772767 Z M1.47465374,13.2543671 L5.79547896,1.40343095 L5.79547893,1.40343099 C5.85840039,1.32261594 5.95331797,1.27826779 6.05156071,1.28378238 L6.05156071,1.28378238 C6.15084959,1.27264038 6.24948898,1.31038182 6.31959381,1.38633833 L11.3964076,12.4676055 L11.3964076,12.4676056 C11.501512,12.6878147 11.7132273,12.826513 11.9445509,12.8267051 L11.944551,12.8267051 C12.1824596,12.8258981 12.3974683,12.6750075 12.4926943,12.4420242 L14.6490004,7.3973082 L16.553448,13.2543671 L1.47465374,13.2543671 L1.47465374,13.2543671 Z" id="形状"></path>
                            <path d="M12.6001013,5.04 C13.5942608,5.04 14.4,4.23405132 14.4,3.24006077 C14.4,2.24586766 13.5941595,1.44 12.6001013,1.44 C11.606043,1.44 10.8,2.24594868 10.8,3.24006077 C10.8,4.23417286 11.6059417,5.04 12.6001013,5.04 L12.6001013,5.04 Z M12.6001013,2.34 C13.097245,2.34 13.5001013,2.74292703 13.5001013,3.24004558 C13.5001013,3.73707297 13.097169,4.14 12.6001013,4.14 C12.1030335,4.14 11.7001013,3.73699701 11.7001013,3.24004558 C11.7001013,2.74292703 12.1029576,2.34 12.6001013,2.34 L12.6001013,2.34 Z" id="形状"></path>
                        </g>
                    </g>
                </g>
            </g>
        </g>
    </g>
</svg>