<?xml version="1.0" encoding="UTF-8"?>
<svg width="14px" height="14px" viewBox="0 0 14 14" version="1.1" xmlns="http://www.w3.org/2000/svg" xmlns:xlink="http://www.w3.org/1999/xlink">
    <title>形状</title>
    <g id="页面-1" stroke="none" stroke-width="1" fill="none" fill-rule="evenodd">
        <g id="产业投资-产业用地获取-热点产业-详情" transform="translate(-27.000000, -335.000000)" fill="#4768C8" fill-rule="nonzero">
            <g id="编组" transform="translate(10.000000, 317.000000)">
                <g id="公司" transform="translate(17.000000, 18.000000)">
                    <path d="M14,12.4481219 L14,14 L0,14 L0,12.4481219 L0.777778385,12.4481219 L0.777778385,3.40842214 L0.777778332,3.40843525 C0.780333734,2.77530146 1.16816505,2.20720108 1.75776557,1.97293893 L6.42443224,0.110684438 L6.4244322,0.110684455 C7.222496,-0.206624433 8.12729522,0.181574882 8.44535407,0.977753054 C8.52245707,1.17075827 8.55992694,1.37724665 8.55554173,1.58496986 L8.55554173,12.448115 L10.1110967,12.448115 L10.1110967,5.31722611 L10.1110967,5.31721838 C10.1106707,5.10294818 10.2844365,4.92890559 10.4992138,4.92848003 C10.558793,4.92836215 10.6176026,4.94190276 10.671104,4.96805676 L13.0044373,6.13196581 L13.0044373,6.13196583 C13.1367109,6.19863345 13.2207027,6.33330027 13.2222157,6.48113854 L13.2222157,12.4481184 L14,12.4481184 L14,12.4481219 Z M7,8.56843108 L2.33333333,8.56843108 L2.33333333,10.1203092 L7,10.1203092 L7,8.56843108 Z M7,4.68874029 L2.33333333,4.68874029 L2.33333333,6.24061842 L7,6.24061842 L7,4.68874029 Z" id="形状"></path>
                </g>
            </g>
        </g>
    </g>
</svg>