<?xml version="1.0" encoding="UTF-8"?>
<svg width="10px" height="10px" viewBox="0 0 10 10" version="1.1" xmlns="http://www.w3.org/2000/svg" xmlns:xlink="http://www.w3.org/1999/xlink">
    <title>形状</title>
    <g id="页面-1" stroke="none" stroke-width="1" fill="none" fill-rule="evenodd">
        <g id="产业投资-活跃区域详情" transform="translate(-297.000000, -529.000000)" fill="#AFC4FF" fill-rule="nonzero">
            <g id="编组" transform="translate(10.000000, 318.000000)">
                <path d="M289.836026,215.774736 C289.943709,215.774736 290.031749,215.862359 290.031749,215.97046 L290.031332,219.19998 L291.019844,219.19998 L291.019844,215.970602 C291.019844,215.862502 291.107885,215.774878 291.215568,215.774878 L292.801422,215.774878 C292.909522,215.774878 292.997146,215.862501 292.997146,215.970602 L292.997146,219.200122 L293.985658,219.200122 L293.985658,215.970602 C293.985658,215.862502 294.073699,215.774878 294.181382,215.774878 L295.767236,215.774878 C295.875337,215.774878 295.96296,215.862501 295.96296,215.970602 L295.96296,219.200122 L296.706294,219.200122 C296.813977,219.200122 296.902018,219.287745 296.902018,219.395846 L296.902018,219.689362 C296.902018,219.959615 296.68289,220.178743 296.412637,220.178743 L287.604626,220.178743 C287.334373,220.178743 287.115246,219.959615 287.115246,219.689362 L287.115246,219.395846 C287.115246,219.287606 287.203287,219.200122 287.31097,219.200122 L288.054304,219.200122 L288.054304,215.970602 C288.054304,215.862502 288.141927,215.774878 288.250028,215.774878 L289.836024,215.774878 L289.836026,215.774736 Z M292.373193,211.262632 L292.43198,211.304284 L296.861896,214.786785 L296.861896,214.786785 C296.965294,214.868 297.010519,215.002908 296.976963,215.130034 L296.976963,215.130034 C296.943296,215.25714 296.837301,215.352076 296.707267,215.37159 L296.658371,215.375492 L287.359037,215.375492 L287.359037,215.375492 C287.228118,215.375911 287.109383,215.298742 287.056605,215.178931 L287.056605,215.178931 C287.003816,215.059116 287.027065,214.919406 287.11581,214.823144 L287.154955,214.786925 L291.585429,211.304292 C291.812915,211.125424 292.128164,211.108846 292.373202,211.262639 L292.373193,211.262632 Z" id="形状"></path>
            </g>
        </g>
    </g>
</svg>