<?xml version="1.0" encoding="UTF-8"?>
<svg width="174px" height="129px" viewBox="0 0 174 129" version="1.1" xmlns="http://www.w3.org/2000/svg" xmlns:xlink="http://www.w3.org/1999/xlink">
    <title>编组 17</title>
    <defs>
        <linearGradient x1="30.2255099%" y1="0%" x2="69.3502462%" y2="100%" id="linearGradient-1">
            <stop stop-color="#EBEFFF" offset="0%"></stop>
            <stop stop-color="#ABC1FF" offset="100%"></stop>
        </linearGradient>
        <linearGradient x1="41.7615277%" y1="-21.0184974%" x2="54.0402208%" y2="100%" id="linearGradient-2">
            <stop stop-color="#F4F6FF" stop-opacity="0.130545236" offset="0%"></stop>
            <stop stop-color="#E5EAFF" offset="100%"></stop>
        </linearGradient>
        <linearGradient x1="11.7076547%" y1="28.875%" x2="100%" y2="73.0204305%" id="linearGradient-3">
            <stop stop-color="#DEE4FF" offset="0%"></stop>
            <stop stop-color="#2C60FD" offset="100%"></stop>
        </linearGradient>
        <filter x="-45.0%" y="-69.2%" width="190.0%" height="238.5%" filterUnits="objectBoundingBox" id="filter-4">
            <feGaussianBlur stdDeviation="9" in="SourceGraphic"></feGaussianBlur>
        </filter>
        <linearGradient x1="30.2255099%" y1="2.63111111%" x2="69.3502462%" y2="97.3688889%" id="linearGradient-5">
            <stop stop-color="#EBEFFF" offset="0%"></stop>
            <stop stop-color="#ABC1FF" offset="100%"></stop>
        </linearGradient>
        <path d="M63.1855501,76.5517241 L22.9351396,76.5517241 C18.4941776,76.5517241 14.8850575,73.0105571 14.8850575,68.6532103 L14.8850575,34.4789736 C14.8850575,30.1216268 18.4941776,26.5804598 22.9351396,26.5804598 L63.1855501,26.5804598 C67.626512,26.5804598 71.2356322,30.1216268 71.2356322,34.4789736 L71.2356322,68.6532103 C71.2356322,73.0237213 67.626512,76.5517241 63.1855501,76.5517241 Z" id="path-6"></path>
        <filter x="-12.4%" y="-10.0%" width="124.8%" height="128.0%" filterUnits="objectBoundingBox" id="filter-7">
            <feOffset dx="0" dy="2" in="SourceAlpha" result="shadowOffsetOuter1"></feOffset>
            <feGaussianBlur stdDeviation="2" in="shadowOffsetOuter1" result="shadowBlurOuter1"></feGaussianBlur>
            <feColorMatrix values="0 0 0 0 0.325490196   0 0 0 0 0.490196078   0 0 0 0 0.992156863  0 0 0 1 0" type="matrix" in="shadowBlurOuter1"></feColorMatrix>
        </filter>
        <linearGradient x1="50%" y1="0%" x2="50%" y2="100%" id="linearGradient-8">
            <stop stop-color="#F0F1FA" offset="0%"></stop>
            <stop stop-color="#E0E7FF" offset="100%"></stop>
        </linearGradient>
        <linearGradient x1="11.7076547%" y1="30.46875%" x2="100%" y2="71.2836821%" id="linearGradient-9">
            <stop stop-color="#DEE4FF" offset="0%"></stop>
            <stop stop-color="#2C60FD" offset="100%"></stop>
        </linearGradient>
        <path d="M3.24314109,34.0229885 C3.21639813,34.275854 3.18965517,34.5287195 3.18965517,34.7948937 L3.18965517,68.5723999 C3.18965517,75.9188079 9.1800783,81.8678161 16.5611354,81.8678161 L70.488315,81.8678161 C73.9400842,81.8729299 77.2584679,80.5413072 79.7413793,78.1546712 L3.24314109,34.0229885 Z" id="path-10"></path>
        <filter x="-11.8%" y="-10.5%" width="111.8%" height="110.5%" filterUnits="objectBoundingBox" id="filter-11">
            <feMorphology radius="14" operator="erode" in="SourceAlpha" result="shadowSpreadOuter1"></feMorphology>
            <feOffset dx="-3" dy="1" in="shadowSpreadOuter1" result="shadowOffsetOuter1"></feOffset>
            <feGaussianBlur stdDeviation="3" in="shadowOffsetOuter1" result="shadowBlurOuter1"></feGaussianBlur>
            <feColorMatrix values="0 0 0 0 0.349019608   0 0 0 0 0.505882353   0 0 0 0 0.992156863  0 0 0 1 0" type="matrix" in="shadowBlurOuter1"></feColorMatrix>
        </filter>
        <linearGradient x1="11.7076547%" y1="0%" x2="100%" y2="104.486226%" id="linearGradient-12">
            <stop stop-color="#DEE4FF" offset="0%"></stop>
            <stop stop-color="#2C60FD" offset="100%"></stop>
        </linearGradient>
        <linearGradient x1="50%" y1="-38.8406032%" x2="50%" y2="100%" id="linearGradient-13">
            <stop stop-color="#F6F7FF" offset="0%"></stop>
            <stop stop-color="#E0E7FF" offset="100%"></stop>
        </linearGradient>
    </defs>
    <g id="页面-1" stroke="none" stroke-width="1" fill="none" fill-rule="evenodd">
        <g id="联系我们" transform="translate(-96.000000, -179.000000)">
            <g id="编组-17" transform="translate(96.447013, 179.684513)">
                <path d="M154.946665,21.7062915 C165.222653,21.7062915 173.552987,30.0366255 173.552987,40.3126133 C173.552987,50.5886011 165.222653,58.9189351 154.946665,58.9189351 C144.670677,58.9189351 136.340343,50.5886011 136.340343,40.3126133 C136.340343,30.0366255 144.670677,21.7062915 154.946665,21.7062915 Z M155.478274,29.1488202 C149.019082,29.1488202 143.782872,34.3850302 143.782872,40.8442225 C143.782872,47.3034148 149.019082,52.5396248 155.478274,52.5396248 C161.937467,52.5396248 167.173677,47.3034148 167.173677,40.8442225 C167.173677,34.3850302 161.937467,29.1488202 155.478274,29.1488202 Z" id="形状结合" fill="url(#linearGradient-1)" opacity="0.400000006"></path>
                <path d="M46.3345961,114.602205 C23.5507803,92.4515264 15.0450332,78.776692 20.8173547,73.5777019 C29.475837,65.7792167 39.9552857,74.7527799 39.9552857,65.7792167 C39.9552857,56.8056535 13.374826,48.1510558 13.374826,32.7343891 C13.7320058,23.3233813 26.1334467,36.9872626 29.854711,32.7343891 C33.5759754,28.4815155 16.676588,11.0684695 29.854711,4.82019053 C40.6632223,1.95249186 40.9395626,32.7343891 46.3345961,32.7343891 C51.7296296,32.7343891 52.6511765,25.2918604 58.5302426,32.7343891 C64.4093087,40.1769178 51.2894884,59.9329461 51.2894884,65.7792167 C51.2894884,71.6254872 57.7399611,64.2158273 62.3669916,67.9206573 C65.4516787,70.3905439 62.9427959,85.9510599 54.8403432,114.602205 L46.3345961,114.602205 Z" id="路径-26" fill="url(#linearGradient-2)" transform="translate(38.508826, 59.616892) rotate(-15.000000) translate(-38.508826, -59.616892) "></path>
                <rect id="矩形" fill="url(#linearGradient-3)" filter="url(#filter-4)" x="46.5529869" y="62.3154869" width="60" height="39" rx="1"></rect>
                <g id="邮件01" transform="translate(91.052987, 71.487901) rotate(-1.000000) translate(-91.052987, -71.487901) translate(48.524251, 28.959165)">
                    <rect id="矩形" fill="#000000" fill-rule="nonzero" opacity="0" x="1.13686838e-13" y="0" width="85.0574713" height="85.0574713"></rect>
                    <path d="M39.2603046,5.46732829 L6.00499096,29.0606126 C4.23955995,30.3096953 3.188355,32.3533936 3.18965517,34.5340404 L3.18965517,68.4987344 C3.18965517,75.8858546 9.11111128,81.8678161 16.4071896,81.8678161 L69.7135012,81.8678161 C77.0095796,81.8678161 82.9310345,75.8858546 82.9310345,68.4987344 L82.9310345,34.5340404 C82.9310345,32.3526988 81.8868494,30.3185642 80.1156999,29.0606126 L46.8471687,5.46732829 C44.5710668,3.84805532 41.5364065,3.84805532 39.2603046,5.46732829 Z" id="路径" fill="url(#linearGradient-5)"></path>
                    <g id="路径" fill-rule="nonzero">
                        <use fill="black" fill-opacity="1" filter="url(#filter-7)" xlink:href="#path-6"></use>
                        <use fill="#FFFFFF" xlink:href="#path-6"></use>
                    </g>
                    <path d="M7.37915804,78.1721236 C9.86206942,80.5587596 13.1804531,81.8903823 16.6322223,81.8852685 L69.5595543,81.8678013 C76.9406114,81.8678013 82.9310345,75.9188079 82.9310345,68.5723999 L82.9310345,34.7948937 C82.9310345,34.5420282 82.917663,34.275854 82.8775486,34.0229885 L7.37915804,78.1721236 Z" id="路径" fill="url(#linearGradient-8)"></path>
                    <g id="路径">
                        <use fill="black" fill-opacity="1" filter="url(#filter-11)" xlink:href="#path-10"></use>
                        <use fill="url(#linearGradient-9)" fill-rule="evenodd" xlink:href="#path-10"></use>
                    </g>
                    <path d="M30.6561303,40.4022989 L25.6944444,40.4022989 C25.0122126,40.4022989 24.454023,39.8431773 24.454023,39.1598066 L24.454023,34.2022624 C24.454023,33.5188916 25.0122126,32.9597701 25.6944444,32.9597701 L30.6561303,32.9597701 C31.3383621,32.9597701 31.8965517,33.5188916 31.8965517,34.2022624 L31.8965517,39.1598066 C31.8965517,39.8431773 31.3383621,40.4022989 30.6561303,40.4022989 Z" id="路径" fill="url(#linearGradient-12)"></path>
                    <path d="M50.4438059,35.440613 L37.4489144,35.440613 C36.7341954,35.440613 36.1494253,34.8824234 36.1494253,34.2001916 C36.1494253,33.5179598 36.7341954,32.9597701 37.4489144,32.9597701 L50.4438059,32.9597701 C51.1585249,32.9597701 51.743295,33.5179598 51.743295,34.2001916 C51.743295,34.8824234 51.1585249,35.440613 50.4438059,35.440613 Z M58.2407407,40.4022989 L37.4489144,40.4022989 C36.7341954,40.4022989 36.1494253,39.8441092 36.1494253,39.1618774 C36.1494253,38.4796456 36.7341954,37.9214559 37.4489144,37.9214559 L58.2407407,37.9214559 C58.9554598,37.9214559 59.5402299,38.4796456 59.5402299,39.1618774 C59.5402299,39.8441092 58.9554598,40.4022989 58.2407407,40.4022989 Z" id="形状" fill="url(#linearGradient-13)"></path>
                </g>
                <rect id="矩形" fill="#000000" fill-rule="nonzero" opacity="0" x="91.0529869" y="40.6545673" width="76.5517241" height="76.5517241"></rect>
            </g>
        </g>
    </g>
</svg>