<?xml version="1.0" encoding="UTF-8"?>
<svg width="13px" height="13px" viewBox="0 0 13 13" version="1.1" xmlns="http://www.w3.org/2000/svg" xmlns:xlink="http://www.w3.org/1999/xlink">
    <title>编组 9</title>
    <g id="页面-1" stroke="none" stroke-width="1" fill="none" fill-rule="evenodd">
        <g id="单项指标" transform="translate(-30.000000, -663.000000)" stroke="#4969C8">
            <g id="背景处理" transform="translate(0.000000, 86.000000)">
                <g id="编组" transform="translate(0.000000, 85.000000)">
                    <g id="编组-5" transform="translate(20.000000, 452.000000)">
                        <g id="编组-9" transform="translate(10.000000, 40.000000)">
                            <circle id="椭圆形" cx="6.5" cy="6.5" r="6"></circle>
                            <path d="M8.75,5.5 L8,5.5 L8,4.5 C8,3.66875 7.33125,3 6.5,3 C5.66875,3 5,3.66875 5,4.5 L5.5,4.5 C5.5,3.95 5.95,3.5 6.5,3.5 C7.05,3.5 7.5,3.95 7.5,4.5 L7.5,5.5 L4.25,5.5 C4.1125,5.5 4,5.6125 4,5.75 L4,8.75 C4,8.8875 4.1125,9 4.25,9 L8.75,9 C8.8875,9 9,8.8875 9,8.75 L9,5.75 C9,5.6125 8.8875,5.5 8.75,5.5 Z M6.5,7.75 C6.225,7.75 6,7.525 6,7.25 C6,6.975 6.225,6.75 6.5,6.75 C6.775,6.75 7,6.975 7,7.25 C7,7.525 6.775,7.75 6.5,7.75 Z" id="形状" stroke-width="0.5" fill="#4969C8" fill-rule="nonzero"></path>
                        </g>
                    </g>
                </g>
            </g>
        </g>
    </g>
</svg>