<?xml version="1.0" encoding="UTF-8"?>
<svg width="15px" height="11px" viewBox="0 0 15 11" version="1.1" xmlns="http://www.w3.org/2000/svg" xmlns:xlink="http://www.w3.org/1999/xlink">
    <title>选中</title>
    <g id="页面-1" stroke="none" stroke-width="1" fill="none" fill-rule="evenodd">
        <g id="单项指标-选择指标-下拉" transform="translate(-336.000000, -191.000000)" fill="#4D69C9" fill-rule="nonzero">
            <path d="M350.419193,191.50846 C350.093744,191.182904 349.652276,191 349.191946,191 C348.731616,191 348.290148,191.182904 347.964698,191.50846 L341.418937,198.055543 L338.963451,195.600717 C338.637988,195.275061 338.196449,195.092092 337.736038,195.092092 C337.275627,195.092092 336.834088,195.275061 336.508625,195.600717 C336.182968,195.92618 336,196.367719 336,196.82813 C336,197.288541 336.182968,197.73008 336.508625,198.055543 L339.781175,201.328093 C340.226575,201.773162 340.848217,201.896499 341.417615,201.75729 C341.988335,201.896499 342.609647,201.773162 343.055378,201.328093 L350.418863,193.963285 C350.744644,193.637909 350.92779,193.196379 350.92779,192.735941 C350.92779,192.275503 350.744887,191.833923 350.419193,191.50846 L350.419193,191.50846 Z" id="选中"></path>
        </g>
    </g>
</svg>