<?xml version="1.0" encoding="UTF-8"?>
<svg width="16px" height="16px" viewBox="0 0 16 16" version="1.1" xmlns="http://www.w3.org/2000/svg" xmlns:xlink="http://www.w3.org/1999/xlink">
    <title>邮箱</title>
    <g id="页面-1" stroke="none" stroke-width="1" fill="none" fill-rule="evenodd">
        <g id="联系我们" transform="translate(-164.000000, -358.000000)" fill-rule="nonzero">
            <g id="编组" transform="translate(105.000000, 355.921175)">
                <g id="邮箱" transform="translate(59.000000, 0.000000)">
                    <g transform="translate(0.000000, 2.078825)">
                        <rect id="矩形" fill="#000000" opacity="0" x="0" y="0" width="16" height="16"></rect>
                        <g id="编组-2" transform="translate(1.000000, 3.000000)" fill="#4768C8">
                            <path d="M13.4389414,1.22734629 C13.4025607,1.52859052 13.2693964,1.81854679 13.0410826,2.04832558 L7.71565769,7.37375046 C7.17060452,7.91880363 6.27956844,7.91880363 5.73451527,7.37375046 L0.409090382,2.04832558 C0.179311594,1.81854679 0.0462224518,1.52712553 0.0112316243,1.22734629 C0.0041883772,1.28480038 0,1.34223568 0,1.40107963 L0,8.68659235 C0,9.45716079 0.630436069,10.087672 1.40109843,10.087672 L12.0491497,10.087672 C12.8196618,10.087672 13.450173,9.45716079 13.450173,8.68659235 L13.450173,1.40107963 C13.450173,1.34223568 13.4459846,1.28480037 13.4389414,1.22734629 L13.4389414,1.22734629 L13.4389414,1.22734629 Z M7.71565769,6.35381361 L13.2988841,0.77056844 C13.0676403,0.313846938 12.5927379,0 12.0491497,0 L1.40109841,0 C0.857510235,0 0.382457515,0.313846956 0.151363995,0.77056844 L5.73451527,6.35381361 C6.27949332,6.89884801 7.17060452,6.89884801 7.71565769,6.35381361 L7.71565769,6.35381361 L7.71565769,6.35381361 Z" id="形状"></path>
                        </g>
                    </g>
                </g>
            </g>
        </g>
    </g>
</svg>