<?xml version="1.0" encoding="UTF-8"?>
<svg width="16px" height="16px" viewBox="0 0 16 16" version="1.1" xmlns="http://www.w3.org/2000/svg" xmlns:xlink="http://www.w3.org/1999/xlink">
    <title>项目</title>
    <g id="页面-1" stroke="none" stroke-width="1" fill="none" fill-rule="evenodd">
        <g id="产业投资-活跃区域详情" transform="translate(-26.000000, -336.000000)" fill-rule="nonzero">
            <g id="项目" transform="translate(26.000000, 336.000000)">
                <rect id="矩形" fill="#000000" opacity="0" x="0" y="0" width="16" height="16"></rect>
                <path d="M11.88,8.2 L7.08,8.2 C6.68,8.2 6.36,7.88 6.36,7.48 C6.36,7.08 6.68,6.76 7.08,6.76 L11.88,6.76 C12.28,6.76 12.6,7.08 12.6,7.48 C12.6,7.88 12.28,8.2 11.88,8.2 Z M11.88,11.04 L7.08,11.04 C6.68,11.04 6.36,10.72 6.36,10.32 C6.36,9.92 6.68,9.6 7.08,9.6 L11.88,9.6 C12.28,9.6 12.6,9.92 12.6,10.32 C12.6,10.72 12.28,11.04 11.88,11.04 Z M15.16,13.36 L15.16,4.36 C15.16,3.28 14.16,3.36 14.16,3.36 L8.52,3.36 C8.2,3.36 8,3.2 8,3.2 C8,3.2 7.76,2.8 7.32,2.16 C6.92,1.44 6.4,1.56 6.4,1.56 L2.04,1.56 C0.8,1.56 0.8,2.72 0.8,2.72 L0.8,13.28 C0.8,14.6 1.8,14.44 1.8,14.44 L14.28,14.44 C15.32,14.44 15.16,13.36 15.16,13.36 L15.16,13.36 Z" id="形状" fill="#4768C8"></path>
                <path d="M3.68,10.32 C3.68,10.76 4,11.08 4.44,11.08 C4.88,11.08 5.2,10.72 5.2,10.32 C5.2,9.92 4.88,9.56 4.44,9.56 C4,9.56 3.68,9.88 3.68,10.32 L3.68,10.32 Z" id="路径" fill="#FFFFFF"></path>
                <path d="M3.68,7.48 C3.68,7.92 4,8.24 4.44,8.24 C4.88,8.24 5.2,7.88 5.2,7.48 C5.2,7.08 4.88,6.72 4.44,6.72 C4,6.72 3.68,7.08 3.68,7.48 L3.68,7.48 Z" id="路径" fill="#FFFFFF"></path>
            </g>
        </g>
    </g>
</svg>